<?xml version="1.0" encoding="UTF-8"?>
<svg version="1.1" viewBox="0 0 1000 1000" width="1000" height="1000" xmlns="http://www.w3.org/2000/svg">
<path transform="translate(684,220)" d="m0 0h25l14 3 16 6 14 8 14 10 12 7 10 8 6 7 5 9 5 11 21 5 12 5 14 8 10 9 7 7 9 15 6 16 4 18 2 15v23l-3 30-7 41-7 31-10 36-12 36-12 29-8 17-14 24-10 14-8 8-12 6-16 4-15 2-15 1h-15l1 46h56l8 3 9 7 7 10v5l-5 2 3 3 8 5 5 8 3 16 37 7 11 4 2 2-1 4-16 5-25 4-43 4-19 2-45 3-86 3-51 1-97 1h-71l-70-1-48-1-78-3-49-3-33-3-36-4-20-4-13-4-2-3 4-4 13-4 24-4 9-1h10l-1-193-3-2v-22l5-2v-197l2-3h142l3-12 8-9 10-4h35l175 1 11 4 6 4 5 7 3 11 2 26 3 32 5 50 2 17-1 12-3 9 19-2 12-4 14-7 15-10 23-11 14-4-8-3-12-5-14-9-9-9-6-9-4-12-2-8-8-7-7-9-5-5-7-10-3-10v-9l4-13 9-10 10-6 10-7h2v-9l-10-7-9-11-6-12-4-15-1-7v-11l2-2 6 1 9 3-3-8v-5l2-2 8 1 18 2 14-2 12-5 6-11 7-7 14-8 21-7zm-288 311-4 10-4 14 2 1h55l1-4-1-9 4-6 5-6zm-159 70-68 1-1 162v25l1 2 44-2 27-1 1-1v-185zm309 0-264 1v182l6 1 99-2 95-1-4-3-14-6-13-9-10-9-8-9-7-11-5-13v-15l3-7 4-6 9-6 12-5 12-2 17-1 7-3 12-1 6-14 11-19 11-14 9-10 4-5 11-9 2-3zm121 96-19 19-2 3v16h23v-38zm-41 14-2 4 1 5 3 9 9 1 1-10-4-4-4-1-2-4zm-107 32 1 2zm2 6 1 18 5-5v-5l-3-5zm122 7-9 24 1 4 34 1v-28l-1-1zm94 0-1 1v30l2 2 36 2 1-1 2-12 3-5v-2l4-2v-4l-6-1-4-8zm-204 11-9 10-5 5 4 1 11-1 9-1 4 1h8l-5-5-13-9z" fill="#401163"/>
<path transform="translate(295,371)" d="m0 0h193l9 2 9 6 3 7 6 48 5 51 1 15v13l-3 7-4 3h-116l3-10 19-56 1-7-5-7-2-1h-37l-2 6-34 68-2 5-6 1h-21l-8-2-5-4-3-12-6-40-6-43-3-29v-11l5-5 6-4z" fill="#FEFEFE"/>
<path transform="translate(281,601)" d="m0 0h265v1h-264v182l105-2 98-1 16 3 10-1 8-2 4 1 11-1 9-1 4 1h7l-1-2 3 1 1 24 1 1 36 1 3 1h9l9-4 5-6 4-6 5-5 4-6 2 3 26 1 8 1-1-29h2l1 48 1 1 36 1 4 7 5 3h8l6-4 4-7 1-4v-14l2 1 36 2 2-1 3 9 8 7 5 2h10l8-4 6-7 2-7h2l1 5 37 7 11 4 2 2-1 4-16 5-25 4-43 4-19 2-45 3-86 3-51 1-97 1h-71l-70-1-48-1-78-3-49-3-33-3-36-4-20-4-13-4-2-3 4-4 13-4 24-4 9-1h10l1 10h37l1-1 1-15 1 2 6-1 38-2 28-1 1 18h37l1-1z" fill="#BBCFED"/>
<path transform="translate(593,340)" d="m0 0 19 5 21 2-2 8 6 2 13 4h18l15-4 16-8 6-4h2l2 5 5-1 3-4h2l1-2 6 25 4 9 6 1 6 18 8 16 4 16 7 11 5 4-2 4-12 11-14 9-17 8-19 5-18 2h-17l-20-2-19-5-12-5-10-7-7-6-7-11-3-11-1-10v-34l3-40 1-10z" fill="#FEDCBE"/>
<path transform="translate(808,299)" d="m0 0 8 1 12 3 17 9 11 9 9 11 7 12 5 16 3 16 1 14v30l-4 32-7 38-7 29-8 29-11 32-3 8h-2l-4-11-6-5-9-2 3-10 12-37 11-41 7-32 4-23 3-29v-30l-2-16-5-17-6-11-7-9-4-3h-5v5l8 7 6 9 5 12 3 15 1 11v23l-2 23-4 26-8 37-10 37-13 41-5 12-28 1h-14l7-14 2-10v-14l-3-15-8-16-9-8-11-5-24-7 4-3 16-8 12-8 13-12 5-5 10-2 8-4 13-4 8-7 4-8 3-13v-13l-1-7 6-21 2-14v-14l-2-10-4-9-6-8-6-4z" fill="#DB1D45"/>
<path transform="translate(207,384)" d="m0 0h67l3 33 7 53 7 44 4 8 8 5-1 16-1 6h-23l-22-2-11-3-7-4-4-9-3-16-2-24-1-32-10-21v-3l-1 2-4 104-1 25h92l1 8h-98z" fill="#726A7F"/>
<path transform="translate(138,384)" d="m0 0h62v190h-62z" fill="#726A7F"/>
<path transform="translate(670,243)" d="m0 0h23l21 5 16 7 11 7 9 9 8 13 7 15 5 19-1 4-10-8-6-8-4-8-2-16-13 16-12 13-11 10-14 10-19 10-16 5h-5l17-17 9-13 1-2-32 5-19 2h-22l-17-4-11-6v-2l2-2-11-13 1-3h24l7-1 1-1-20-12-6-5v-1h23l12-3 12-6 14-8 16-7z" fill="#736A80"/>
<path transform="translate(439,191)" d="m0 0h11l12 5 14 9 10 9 5 5 7 9 3 7v7l-4 12-8 16 1 4 12 13 9 10 7 9-1 5-5 1-24-4-17-1h-11l-9 5-10 1-14-7-13-10-8-8-8-12-3-8-1-12 4-16 5-11 5-10 9-12 9-9 10-6z" fill="#FDD507"/>
<path transform="translate(708,487)" d="m0 0 9 1 22 5 13 5 8 5 6 8 5 13 2 14-1 12-3 10-6 8-10 5-17 3h-29l-24-3-21-5-1-2 5-10 1-4v-12l-5-11 14 2 54 11h2v-18l2-5-1-4-5 1-3 9-1 9-44-9-32-6-14-4-8-1h-11l-11 2-12 5-10 7-7 9-4 6-5 5-5 9-26-1-2-2v-12l-3-9 27-3 18-6 16-9 14-9 17-8 21-6h5l5 6 12 6 3 1h18l10-4 8-7z" fill="#FDFDFE"/>
<path transform="translate(579,270)" d="m0 0 8 6 21 13-2 2-7 1h-24l2 4 9 11-1 2h-2v2l5 2 9 4 14 3h22l34-4 12-2h5l-2 5-8 11-13 13-3 2 8-1 16-6 15-8 11-8 14-12 7-7 9-11 8-10 2-2 2 18 6 11 3 3v2l4 2 8 7 3 19v11l-11 8-6 7-5 11-3 14-2-3-4-16-1-9-5-1-4 3-4-15-3-20-5-1-4 2-1-2h-5l-9 8-15 9-14 5-5 1h-17l-9-3 5-6 2-1v-5l-4-1-9 1h-16l-16-3-13-5-11-8-7-8-7-14-3-12v-7l13 3h6l1-5-4-8z" fill="#645178"/>
<path transform="translate(596,601)" d="m0 0h15l14 6 21 6 24 4v68l-10 9-17 17-4-1-11-9-15-9-12-6-5-2v-20l8-11 11-12 11-9 10-7 8-5v-4l-4-1-9 5-5-2-2-2-5-1v6l4 4-13 11-11 9-3 2z" fill="#645178"/>
<path transform="translate(132,585)" d="m0 0h575v8l-3 1h-571l-2-1v-7z" fill="#F08F43"/>
<path transform="translate(216,435)" d="m0 0h2l7 15 4 9 1 32 2 24 4 19 3 6 8 4 17 3 37 2 1-15 1-6 17 1v28h-12l-2 1-1 15h-1v-7h-92v-25z" fill="#645178"/>
<path transform="translate(382,449)" d="m0 0h25l-3 10-22 55-18 46-2 5v9h-30l-6-3-1-4 9-20 24-50z" fill="#FDFCFD"/>
<path transform="translate(768,593)" d="m0 0h46l2 1-1 11-5 16-8 17-8 11-4-2-6-5-8-4-16-4-8-1-21-1-1-1-1-13 12-22 13-2z" fill="#DB1D46"/>
<path transform="translate(504,414)" d="m0 0h1l2 20 5 65v12l-7 5-8 2h-97l3-11 5-15h75l10-3 4-4 3-25z" fill="#DBD0E4"/>
<path transform="translate(855,338)" d="m0 0 3 4 6 14 5 20 2 20v16l-1 20-5 35-7 37-7 29-6 24-6 22-2 2-4-6-4-3-9-2 3-10 12-37 11-41 7-32 4-23 3-29v-30l-2-16-3-11z" fill="#DB1D46"/>
<path transform="translate(193,429)" d="m0 0h1v137h-50l10-23 12-29 6-15 11-33 7-24z" fill="#645178"/>
<path transform="translate(439,191)" d="m0 0h11l12 5 14 9 10 9 5 5 7 9 3 7v7l-4 12-8 16 1 4 12 13 9 10 7 9-1 5-5 1-24-4-17-1h-11l-9 5-10 1-14-7-13-10-8-8-8-12-3-8-1-12 4-16 5-11 5-10 9-12 9-9 10-6zm2 8-8 4-10 9v2h-2l-7 11-8 16-3 9v16l4 9 6 8 5 6 6 5h2v2l13 8h10l7-4v-2l33 2 13 1-2-4-4-5-12-12-5-6 1-5 5-9 6-12 1-3v-11l-4-6-9-10-12-10-15-8-4-1z" fill="#451867"/>
<path transform="translate(808,299)" d="m0 0 8 1 12 3 17 9 11 9 9 11 7 12 5 16 3 16 1 14v30l-4 32-7 38-7 29-8 29-11 32-3 8h-2l-1-9 9-33 6-24 8-38 6-36 2-16 1-20v-16l-2-20-5-20-7-16v-2h-2l-7-14-7-9-4-3-20-7-8-2z" fill="#FA273C"/>
<path transform="translate(555,610)" d="m0 0h1v79l-8 8-1 2-5-2-16-9-21-9 1-6 11-21 10-14 12-14 7-7z" fill="#645178"/>
<path transform="translate(690,602)" d="m0 0h11l1 3v193h-11l-1-1-1-7v-118z" fill="#E98A44"/>
<path transform="translate(808,303)" d="m0 0 11 2 13 5-1 7 8 7 1 1 1 8v27l-2 19-5 23-8 21-8 15-9 10-8 6-11 5-14 3-10 1-5-1 6-7 8-8 9-3 8-4 13-4 8-7 4-8 3-13v-13l-1-7 6-21 2-14v-14l-2-10-4-9-6-8-6-4z" fill="#FC253B"/>
<path transform="translate(589,426)" d="m0 0 2 3 7 11 8 8 13 8 16 6 15 3 9 1h33l19-3 18-5 18-8 11-7 5-2 3 2-2 4-12 11-14 9-17 8-19 5-18 2h-17l-20-2-19-5-12-5-10-7-7-6-7-11-3-11z" fill="#D9A8B0"/>
<path transform="translate(791,577)" d="m0 0h31l7 3 3 6 1 12-2 12-8 17-12 21-10 14-8 8-12 5-13 3-18 2h-8l-12-4-6-4-4-4-3-12-2-14 7-11h1l5 23 5 10 9 3 9 1h15l16-3 10-5 6-5 9-13 8-16 6-18 1-4v-13l-2-3-3-1-11-1h-26l-34 2 2-6 4-2z" fill="#645178"/>
<path transform="translate(138,589)" d="m0 0h565l1 4h-566z" fill="#C46E4C"/>
<path transform="translate(612,521)" d="m0 0h17l16 4 9 7 6 9v9l-4 9-16-1-9 2h-5v-3l9-7 4-2-8 1-14 6-5 1-2-4 5-6 9-6-9 2-10 6-8 4h-2l1-8 7-7 8-5-9 2-11 6-6 5-5-1 2-5 7-8 10-6z" fill="#FCDBBE"/>
<path transform="translate(396,466)" d="m0 0 1 3-10 24-18 44-11 28-1 6h-19l-5-2-1-1 1-7 18-38 8-17 1-1 10-1 5-4 11-17z" fill="#DCD1E5"/>
<path transform="translate(644,620)" d="m0 0 6 2 4 6v8l-3 10-6 10-9 9-16 8-8 2h-12l-4-2v-9l8-11 11-12 11-9 10-7z" fill="#726A7F"/>
<path transform="translate(136,602)" d="m0 0h8l1 3v177l-1 16h-8z" fill="#C6644B"/>
<path transform="translate(152,602)" d="m0 0h8l1 6v179l-1 11h-8z" fill="#ED8043"/>
<path transform="translate(580,602)" d="m0 0h8v196h-7l-1-1-1-136v-56z" fill="#EE8743"/>
<path transform="translate(564,602)" d="m0 0h8v195l-1 1h-6l-1-1z" fill="#C46E4C"/>
<path transform="translate(266,602)" d="m0 0h8l-1 196h-7l-1-134v-59z" fill="#EC8C43"/>
<path transform="translate(250,602)" d="m0 0h6l1 1v194l-1 1h-6l-1-155v-38z" fill="#C46E4C"/>
<path transform="translate(427,564)" d="m0 0h127v11h-126z" fill="#726A7F"/>
<path transform="translate(294,425)" d="m0 0h1l11 51 3 9 5 5 3 2 35 1-9 19-3 7-29-1-5-3-3-5-9-79z" fill="#DBD0E4"/>
<path transform="translate(768,538)" d="m0 0h1v13l-4 10-7 10-9 3-13 2h-29l-24-3-21-5-1-2 6-11 17 4 20 4 8 1h25l12-5 10-8 8-11z" fill="#DBD0E4"/>
<path transform="translate(291,360)" d="m0 0h211l9 3 6 5 3 7 10 106 2 18v13l-3 6-2 1 1-6v-11l-4-45-8-69-2-8-4-6-6-5-11-4-7-1h-191l-9 4-2-1 4-5z" fill="#FBFAFB"/>
<path transform="translate(682,266)" d="m0 0v3l-9 10-9 8-11 7 10-3 28-11 16-6v2l-10 7 11-3 13-4h3l-2 5-6 9-9 10-3 3h-2l2-9 1-4-52 12-31 4h-6l3-2 20-10 23-13 7-4-12 3-10 2 4-3 23-10z" fill="#B2B1C1"/>
<path transform="translate(555,610)" d="m0 0h1v38l-14 11-9 6-3 1h-10l-5-5-9 18-1-3 9-19 10-15 8-10 11-12z" fill="#726A7F"/>
<path transform="translate(685,228)" d="m0 0h24l12 3 10 3 18 10 11 9 9 10 6 11v3l-6 3h-6l-5-9-9-11-13-9-14-7-16-5-11-2-11-1h-11l-19 2 2-2 16-5z" fill="#DB1D46"/>
<path transform="translate(690,658)" d="m0 0 4 4 4 6v130h-7l-1-1-1-7v-118z" fill="#C6664B"/>
<path transform="translate(472,531)" d="m0 0h34l11 1 5 3 4 7v8l-5 2-9 1 1-4 1-6-9 1-13 12h-4v-14l-4-1-7 6-7 10h-1v-8l1-8-4-1-10 8-4-1 2-5 8-7z" fill="#FCDCC0"/>
<path transform="translate(800,380)" d="m0 0h6l5 6 3 12v8l-3 13-5 8-4 3-6-1-5-8-1-4v-19l4-11z" fill="#FCFBFC"/>
<path transform="translate(697,362)" d="m0 0h10l4 4 1 2v7l-3-3-2-3h-6l-8 6-7 6 5 8 1 4v9l-3 7-4 4-2 1h-6l-6-5-3-9 1-10 3-6-5-2-2-4 9 1 7-4 9-9z" fill="#3E1061"/>
<path transform="translate(732,639)" d="m0 0h16l15 2 13 4 8 5 3 5-8 4-9 2h-24l-9-3-4-10z" fill="#DB1D46"/>
<path transform="translate(678,602)" d="m0 0 4 1v188l-1 7-4-1v-154z" fill="#C7624B"/>
<path transform="translate(608,360)" d="m0 0 7 1 15 15 5 1 4-2v5l-4 3-3 1 3 8-1 10-4 7-5 3-7-1-5-6-2-6v-8l3-8 6-5-7-8-3-4-6 1 1-5z" fill="#3E0F61"/>
<path transform="translate(595,692)" d="m0 0 5 1 14 7 2 2v9l-6-2-4-2h-4v5l14 8 4 12 6 4 11 2-1 11-3 12-4-5-6-10-11-12-14-10-2-1-1-9z" fill="#DB1D46"/>
<path transform="translate(782,358)" d="m0 0 10 2-2 2-9 5-7 8-5 10-3 12v15l4 13 6 10 2 4-7-1-8-7-5-12-2-11v-16l3-13 4-8 5-6 5-3h2v-2z" fill="#F8253C"/>
<path transform="translate(487,684)" d="m0 0h13l12 5 1 4-2 5v10l1 4 10 3 5 1-5 12-4-2-10-10-17-13-17-9-11-4v-1h16l14 3-8-6z" fill="#F8283F"/>
<path transform="translate(580,661)" d="m0 0 4 4 2 3 1 130h-6l-1-1z" fill="#C46E4C"/>
<path transform="translate(481,722)" d="m0 0 6 1 11 10-1 2-39 6-18 1-4-5-4-8 20-1 22-4z" fill="#645178"/>
<path transform="translate(779,265)" d="m0 0 7 6 7 11 7 19 3 11 9 6 6 10 2 7v23l-4 18-2 2-1-6 2-13v-24l-3-9-1-2-8 7-9 1-3-21v-5l4 1-2-10-6-15-5-9-3-6z" fill="#72697F"/>
<path transform="translate(810,323)" d="m0 0 3 3 3 9v24l-2 13-2 2-8-14-8-6-3-2 1-20 9-2 6-5z" fill="#645178"/>
<path transform="translate(152,662)" d="m0 0 4 5 1 1v130h-5z" fill="#C46E4C"/>
<path transform="translate(794,772)" d="m0 0 9 1 6 5 2 4v8l-4 7-6 3h-8l-5-3-4-5-1-2v-7l3-6 5-4z" fill="#72697F"/>
<path transform="translate(502,741)" d="m0 0 4 1 4 7v2l-24 5-21 3h-9l-7-6v-2h-2v-2l32-4z" fill="#645178"/>
<path transform="translate(719,343)" d="m0 0 2 3 4 19 5 12 6 1 2 9-5-5-4-2-6-10-6-18-12 3-1-2-17 8-15 4h-24l-12-3-14-7-2-3 3-2-11-3v-1l21 1-2 8 6 2 13 4h18l15-4 16-8 6-4h2l2 5 5-1 3-4h2z" fill="#D8A8B0"/>
<path transform="translate(791,369)" d="m0 0 6 2v3l-6 5-6 12-2 9v15l2 9 4 7v3l-5-1-7-8-4-11v-20l4-12 7-9 4-3z" fill="#756D83"/>
<path transform="translate(685,228)" d="m0 0h24l12 3 10 3 18 10 11 9 9 10 6 11v3l-6 3h-4l1-3 4-1-8-11-8-8-10-8-11-6-14-6-16-4-17-2-2-2z" fill="#F6303F"/>
<path transform="translate(579,357)" d="m0 0 2 1-1 22-2 30-1 8-5-5-5-11-1-4v-18l3-9 6-10z" fill="#DB1D46"/>
<path transform="translate(764,443)" d="m0 0h2l-2 4-12 11-14 9-17 8-19 5-18 2h-17l-20-2-19-5-12-5-10-7-7-6-3-4 1-2 7 7 11 7 11 5 19 5 15 2h31l18-3 21-7 16-9 13-10z" fill="#FAD8BE"/>
<path transform="translate(732,583)" d="m0 0h7l-2 6-12 22-15 1-1-1v-9l4-2 1-16z" fill="#D8CEE2"/>
<path transform="translate(808,299)" d="m0 0 8 1 12 3 17 9 11 9 9 11 7 12 5 16 3 16 1 14v18h-1l-3-23-2-9-6-23-3-8v-4h-2l-4-8-8-10-15-10-12-5-9-3-8-2z" fill="#D8A6AD"/>
<path transform="translate(266,664)" d="m0 0 4 4 1 130h-5z" fill="#C46E4C"/>
<path transform="translate(440,695)" d="m0 0h13l16 4 16 8 13 10 10 9 9 9 4 5 2 10h-1l-1 6-2-3-4-10-8-11-10-10-14-10-17-8-12-3h-13l-11 5 2-5 6-5zm79 48 1 2z" fill="#F7F6F9"/>
<path transform="translate(406,472)" d="m0 0 1 3-21 61-10 29v4l2 1 42 1v3h-49l-2-2v-7l16-40z" fill="#D8CEE2"/>
<path transform="translate(510,758)" d="m0 0h3v10l-4 6-3 3h-8l-15-4-12-5-2-2 33-6z" fill="#645178"/>
<path transform="translate(138,384)" d="m0 0h61v4h-57l-1 38-2 41h-1z" fill="#B2B1C1"/>
<path transform="translate(773,285)" d="m0 0 2 1 7 18 4 17v30h-4l-4-29-5-19-5-14v-2z" fill="#645178"/>
<path transform="translate(709,688)" d="m0 0h8l1 31v18l-9 1z" fill="#70667E"/>
<path transform="translate(718,744)" d="m0 0 4 1 5 6 1 6v19l-9-1-4 1-2-23-4-5 1-2z" fill="#71687F"/>
<path transform="translate(446,707)" d="m0 0 10 1 12 4 6 3v2l-22 4h-21l3-8 5-4z" fill="#645178"/>
<path transform="translate(540,720)" d="m0 0h7l9 2v9l-12 5-12 3h-4v-8l3-6 6-4z" fill="#72697F"/>
<path transform="translate(791,577)" d="m0 0h31l7 3 3 6 1 12-1 5h-1l-2-13-3-6-5-2h-33l-36 3h-5l2-4 13-2z" fill="#71687F"/>
<path transform="translate(731,743)" d="m0 0h51l8 4 6 6v2l-13 2-5-8-3-1h-42z" fill="#645178"/>
<path transform="translate(136,602)" d="m0 0h8v49l-5-5-3-4z" fill="#ED8D43"/>
<path transform="translate(250,602)" d="m0 0h6l1 1v47l-7-6-1-1v-38z" fill="#E98A44"/>
<path transform="translate(564,602)" d="m0 0h8v47l-7-6-1-1z" fill="#ED8D43"/>
<path transform="translate(779,265)" d="m0 0 7 6 7 11 7 19 3 11 7 5-2 1-9-2v8l-5-1-2-7-1-10 4 1-2-10-6-15-5-9-3-6z" fill="#B1B0C0"/>
<path transform="translate(759,389)" d="m0 0 6 4 1 4v15l4 13 6 10 2 4-7-1-8-7-4-9z" fill="#DB1D46"/>
<path transform="translate(719,782)" d="m0 0 6 1 4 7v11l-3 6-2 2h-6l-4-6-1-4v-7l3-7z" fill="#655378"/>
<path transform="translate(507,688)" d="m0 0 5 1 1 4-2 5v10l1 4 10 3 5 1-5 12-4-2-10-10-12-9 3-2 5-4 2-4z" fill="#DB1D46"/>
<path transform="translate(465,230)" d="m0 0 5 2-1 5h-2l-3 9-1 5v11l1 12-1 1h-5l-2-3-1-5v-19l3-9 5-8z" fill="#3D0B5F"/>
<path transform="translate(453,221)" d="m0 0h5l1 1-1 7-7 9-9 6-8 3h-10l-1-1v-5l7-2 9-3 6-4 5-6z" fill="#3C0B5F"/>
<path transform="translate(796,390)" d="m0 0h1l2 16 3 6 5-1 4-2-1 5-5 10-3 3h-5l-3-4-2-8v-15z" fill="#DCD1E5"/>
<path transform="translate(207,384)" d="m0 0h66v4h-63l-2 26h-1z" fill="#B2B1C1"/>
<path transform="translate(654,533)" d="m0 0 4 4 2 4v9l-4 9-16-1-9 2h-5v-3l3-3 21-7 4-4z" fill="#D8A9B1"/>
<path transform="translate(670,243)" d="m0 0h18v2l-17 3-15 5-16 8-17 8-10 3h-9v-1l12-3 12-6 14-8 16-7z" fill="#B2B1C1"/>
<path transform="translate(596,731)" d="m0 0 9 6 11 11 9 14 3 7v7l-4 6h-1l-2-13-7-14-10-11-8-7z" fill="#D9CEE2"/>
<path transform="translate(553,740)" d="m0 0h3v14l-16 3-4-1-5-7 1-3 19-5z" fill="#645178"/>
<path transform="translate(521,535)" d="m0 0 4 4 1 3v8l-5 2-9 1 1-4 1-6-9 1-13 12h-3l2-5 4-5 10-6 15-4z" fill="#D8A8B0"/>
<path transform="translate(423,253)" d="m0 0h7l7 3 8 6 5 7v3h2v5l-4 2-3-1-6-11-8-5-9-3-1-4z" fill="#3D0C5F"/>
<path transform="translate(487,709)" d="m0 0 9 6 13 12 8 8 4 5 2 10h-1l-1 6-2-3-4-10-8-11-10-10-14-10zm32 34 1 2z" fill="#D8CEE1"/>
<path transform="translate(596,693)" d="m0 0 7 1 12 7 1 1v9l-6-2-4-2-6 1-2 4h-2z" fill="#DB1D46"/>
<path transform="translate(612,773)" d="m0 0h3v12l-1 3-2 1h-16v-9l11-5z" fill="#645178"/>
<path transform="translate(588,557)" d="m0 0 3 1h9l4-1 5 5 2 1h8l3 4h-39l3-8z" fill="#DACFE3"/>
<path transform="translate(785,778)" d="m0 0h1l3 9 6 3h10l4-2-1 8-7 4h-8l-5-3-4-5-1-2v-7z" fill="#645178"/>
<path transform="translate(579,357)" d="m0 0 2 1v8l-2 9-5 5-5 2-1 16h-2v-18l3-9 6-10z" fill="#F8293F"/>
<path transform="translate(773,394)" d="m0 0 2 4 5 7 2 15 2 5 3 3 2 3v3l-5-1-7-8-4-11z" fill="#645178"/>
<path transform="translate(596,750)" d="m0 0 5 1 8 9 2 3v3l-12 5h-3z" fill="#645178"/>
<path transform="translate(520,694)" d="m0 0 6 2 11 6 2 3-7 4-12-1-3-2 1-8z" fill="#D8CEE1"/>
<path transform="translate(773,285)" d="m0 0 2 1 7 18 4 17v27l-2 2-3-32-5-17-5-12v-3z" fill="#827B8F"/>
<path transform="translate(694,489)" d="m0 0h4v2l-9 6-7 2h-8l-9-2-6-3v-2l25-1z" fill="#CBA1AB"/>
<path transform="translate(714,745)" d="m0 0 5 5 2 3v21l-6 2-2-23-4-5 1-2z" fill="#645178"/>
<path transform="translate(633,601)" d="m0 0h37v9l-24-4-13-4z" fill="#DCD3E5"/>
<path transform="translate(570,574)" d="m0 0h65v3h-63z" fill="#DB1D45"/>
<path transform="translate(524,452)" d="m0 0 3 2 5 45v13l-3 6-2 1 1-6v-11l-4-45z" fill="#D6CCE0"/>
<path transform="translate(731,743)" d="m0 0h51l8 4 6 6v2l-11 1 4-3-8-6-3-1-47-1z" fill="#6D627D"/>
<path transform="translate(537,549)" d="m0 0h27l-2 7-4 1-23-1-2-2h3z" fill="#DAD0E3"/>
<path transform="translate(446,707)" d="m0 0 10 1 12 4 6 3v2l-9-1-10-4h-9l-9 5-4 4-2-1 4-8 6-4z" fill="#71697F"/>
<path transform="translate(626,639)" d="m0 0 5 1-1 7-5 6-5 3h-5l-1-5 4-6 6-5z" fill="#B2B1C1"/>
<path transform="translate(783,276)" d="m0 0 4 4 6 14 2 6v7l-5 1-5-16-4-9 1-4z" fill="#726A80"/>
<path transform="translate(678,602)" d="m0 0 4 1v42h-3l-1-1z" fill="#ED8D43"/>
<path transform="translate(717,638)" d="m0 0h2l3 16 6 15 2 6-5-2-5-5-3-12-2-14z" fill="#71697F"/>
<path transform="translate(314,530)" d="m0 0h6v27h-6z" fill="#726A7F"/>
<path transform="translate(719,782)" d="m0 0 6 1 4 7v11l-3 6-2 2h-6v-2h3l2-8-1-10-2-3-4-1z" fill="#72697F"/>
<path transform="translate(548,728)" d="m0 0 8 1-1 3-18 6-9 1 2-4 5-4 5-2z" fill="#645178"/>
<path transform="translate(574,549)" d="m0 0 7 4-5 13-1 1h-7v-8l4-8z" fill="#FAFAFB"/>
<path transform="translate(554,617)" d="m0 0h2v11l-6 5-6 1-1-5 4-7z" fill="#B2B1C1"/>
<path transform="translate(642,565)" d="m0 0 9 1v5l11 4 3 2h-23z" fill="#D8CEE2"/>
<path transform="translate(644,743)" d="m0 0h26v5h-26l-1-2z" fill="#665679"/>
<path transform="translate(727,234)" d="m0 0 5 1 14 7 13 10 7 7 7 11 2 6h-2l-3-7-3-3v-2h-2l-4-6-5-4-5-5-5-4-16-8z" fill="#D6A0A3"/>
<path transform="translate(709,656)" d="m0 0 2 2 3 12 4 6 4 4-2 1h-9l-2-1z" fill="#DB1D46"/>
<path transform="translate(710,619)" d="m0 0h10l-6 12-5 5v-16z" fill="#645178"/>
<path transform="translate(446,552)" d="m0 0 6 4v1h-65l1-3 2 1h55z" fill="#CBCAD5"/>
<path transform="translate(633,738)" d="m0 0h4l-1 11-3 12-2-2-1-8 2-12z" fill="#F7233D"/>
<path transform="translate(376,570)" d="m0 0 44 1v2h-43z" fill="#FEFEFE"/>
<path transform="translate(612,521)" d="m0 0h17l4 2h-17l-12 3-9 4-8 6-1 2h-2l-2 4v-3l7-8 10-6z" fill="#F3F1F6"/>
<path transform="translate(596,750)" d="m0 0 5 1 8 9 2 3v3l-5-1-9-11z" fill="#71687F"/>
<path transform="translate(596,693)" d="m0 0 4 2 2 4-1 8-3 5h-2z" fill="#FF253B"/>
<path transform="translate(406,472)" d="m0 0 1 3-12 35h-3l1-5z" fill="#E5E1EA"/>
<path transform="translate(668,756)" d="m0 0h2v30l-38-1 1-5 2 3 26 1 8 1z" fill="#EBE8F0"/>
<path transform="translate(612,416)" d="m0 0h8l4 4 1 6-2 5-2-1-3-8-6-5z" fill="#431764"/>
<path transform="translate(693,492)" d="m0 0 2 1-8 5-5 1h-8l-9-2-2-2h20z" fill="#F7D7C1"/>
<path transform="translate(758,389)" d="m0 0h1l1 31-2-1-2-11v-16z" fill="#F3223E"/>
<path transform="translate(312,564)" d="m0 0h6l2 11h-8z" fill="#70667E"/>
<path transform="translate(552,762)" d="m0 0h4v9l-5-2-6-4 1-2z" fill="#645178"/>
<path transform="translate(553,779)" d="m0 0 3 1v3h-33v-1l11-1 9-1 4 1h7z" fill="#FAF9FA"/>
<path transform="translate(328,529)" d="m0 0h6l-2 6-4 8h-1v-13z" fill="#E5E4EB"/>
<path transform="translate(782,358)" d="m0 0 10 2-2 2-5 1-1-1h-5l-8 4-2-1 4-3h2v-2z" fill="#D59B9C"/>
<path transform="translate(674,389)" d="m0 0 4 1 1 6-2 3h-4l-1-2v-6z" fill="#F5F4F7"/>
<path transform="translate(626,387)" d="m0 0 4 1 1 1v6l-2 2-4-1-1-5z" fill="#F8F7F9"/>
<path transform="translate(573,555)" d="m0 0h2l3 5-3 7h-4l1-9z" fill="#DACFE3"/>
<path transform="translate(626,767)" d="m0 0 2 2v7l-4 6h-1v-11z" fill="#F9F9FA"/>
<path transform="translate(468,532)" d="m0 0h6v1l-7 2-9 7-4 6-2-1 2-5 8-7z" fill="#F3EFF3"/>
<path transform="translate(603,557)" d="m0 0 4 4v2h-10l-3-3z" fill="#FAFAFB"/>
<path transform="translate(545,607)" d="m0 0 2 1-20 20v-3l13-13z" fill="#836E9D"/>
<path transform="translate(628,547)" d="m0 0h7l-4 2-14 6-5 1-1-2 8-3z" fill="#D8A9B1"/>
<path transform="translate(624,708)" d="m0 0 4 2-3 5 1 5 1 2v6l-2-1-2-6v-8z" fill="#D7CDE1"/>
<path transform="translate(616,397)" d="m0 0 4 2 2 4-1 4-4-2-1-2z" fill="#70657E"/>
<path transform="translate(685,399)" d="m0 0 2 1-1 7-4 2-1-4z" fill="#71687F"/>
<path transform="translate(596,796)" d="m0 0 14 1-4 3h-9z" fill="#645178"/>
<path transform="translate(764,443)" d="m0 0h2l-2 4-11 10v-3z" fill="#F2D6C5"/>
<path transform="translate(481,722)" d="m0 0 6 1 8 7h-3l-11-6z" fill="#70677E"/>
<path transform="translate(463,689)" d="m0 0h16l3 2-12 1-7-2z" fill="#D89786"/>
<path transform="translate(690,602)" d="m0 0h11v3h-11z" fill="#C46E4C"/>
<path transform="translate(579,357)" d="m0 0 2 1-1 2h-2l-2 4-5 5 2-5z" fill="#D59FA1"/>
<path transform="translate(433,689)" d="m0 0 2 1-10 10-1-2 5-6z" fill="#8E79A2"/>
</svg>
