<svg xmlns="http://www.w3.org/2000/svg" xmlns:xlink="http://www.w3.org/1999/xlink" width="500" zoomAndPan="magnify" viewBox="0 0 375 374.999991" height="500" preserveAspectRatio="xMidYMid meet" version="1.0"><defs><g/><clipPath id="d1a93ff75e"><path d="M 157.214844 135 L 178 135 L 178 165 L 157.214844 165 Z M 157.214844 135 " clip-rule="nonzero"/></clipPath><clipPath id="b02ad4ad3b"><path d="M 157.214844 134 L 179 134 L 179 166 L 157.214844 166 Z M 157.214844 134 " clip-rule="nonzero"/></clipPath><clipPath id="bacafc94ec"><path d="M 197 135 L 217.964844 135 L 217.964844 165 L 197 165 Z M 197 135 " clip-rule="nonzero"/></clipPath><clipPath id="6df6c9d77b"><path d="M 196 134 L 217.964844 134 L 217.964844 166 L 196 166 Z M 196 134 " clip-rule="nonzero"/></clipPath><clipPath id="31450e3886"><path d="M 176 126.550781 L 198 126.550781 L 198 173.800781 L 176 173.800781 Z M 176 126.550781 " clip-rule="nonzero"/></clipPath></defs><g clip-path="url(#d1a93ff75e)"><path fill="#03fa6e" d="M 176.320312 164.886719 C 175.988281 164.886719 175.65625 164.773438 175.394531 164.5625 L 158.457031 151.238281 C 158.09375 150.953125 157.882812 150.523438 157.882812 150.058594 C 157.882812 149.597656 158.09375 149.167969 158.457031 148.878906 L 175.394531 135.554688 C 175.65625 135.347656 175.988281 135.234375 176.320312 135.234375 C 176.785156 135.234375 177.214844 135.441406 177.5 135.808594 C 177.746094 136.121094 177.859375 136.515625 177.8125 136.910156 C 177.765625 137.308594 177.5625 137.664062 177.25 137.914062 L 161.8125 150.058594 L 177.25 162.203125 C 177.5625 162.457031 177.765625 162.808594 177.8125 163.207031 C 177.859375 163.605469 177.746094 163.996094 177.5 164.3125 C 177.214844 164.675781 176.785156 164.886719 176.320312 164.886719 " fill-opacity="1" fill-rule="nonzero"/></g><g clip-path="url(#b02ad4ad3b)"><path fill="#03fa6e" d="M 176.320312 134.597656 C 175.84375 134.597656 175.375 134.757812 175 135.054688 L 158.0625 148.378906 C 157.542969 148.789062 157.246094 149.402344 157.246094 150.058594 C 157.246094 150.71875 157.542969 151.332031 158.0625 151.742188 L 175 165.066406 C 175.375 165.359375 175.84375 165.523438 176.320312 165.523438 C 176.984375 165.523438 177.597656 165.226562 178.003906 164.707031 C 178.359375 164.257812 178.511719 163.699219 178.445312 163.132812 C 178.378906 162.566406 178.09375 162.054688 177.644531 161.703125 L 162.84375 150.058594 L 177.644531 138.414062 C 178.09375 138.0625 178.378906 137.554688 178.445312 136.988281 C 178.511719 136.421875 178.359375 135.859375 178.003906 135.410156 C 177.597656 134.890625 176.980469 134.597656 176.320312 134.597656 Z M 176.320312 135.875 C 176.578125 135.875 176.828125 135.984375 177 136.199219 C 177.292969 136.574219 177.226562 137.117188 176.855469 137.410156 L 160.777344 150.058594 L 176.855469 162.707031 C 177.226562 163 177.292969 163.542969 177 163.917969 C 176.828125 164.132812 176.578125 164.246094 176.320312 164.246094 C 176.132812 164.246094 175.949219 164.1875 175.789062 164.0625 L 158.851562 150.738281 C 158.644531 150.574219 158.523438 150.324219 158.523438 150.058594 C 158.523438 149.792969 158.644531 149.546875 158.851562 149.382812 L 175.789062 136.058594 C 175.945312 135.933594 176.132812 135.875 176.320312 135.875 " fill-opacity="1" fill-rule="nonzero"/></g><g clip-path="url(#bacafc94ec)"><path fill="#03fa6e" d="M 198.667969 164.886719 C 198.207031 164.886719 197.777344 164.675781 197.488281 164.3125 C 196.976562 163.664062 197.089844 162.71875 197.742188 162.203125 L 213.179688 150.058594 L 197.742188 137.914062 C 197.089844 137.402344 196.976562 136.457031 197.488281 135.808594 C 197.777344 135.441406 198.207031 135.234375 198.667969 135.234375 C 199.003906 135.234375 199.332031 135.347656 199.597656 135.554688 L 216.535156 148.878906 C 216.898438 149.167969 217.105469 149.597656 217.105469 150.058594 C 217.105469 150.523438 216.898438 150.953125 216.53125 151.238281 L 199.597656 164.5625 C 199.332031 164.773438 199.003906 164.886719 198.667969 164.886719 " fill-opacity="1" fill-rule="nonzero"/></g><g clip-path="url(#6df6c9d77b)"><path fill="#03fa6e" d="M 198.667969 134.597656 C 198.007812 134.597656 197.394531 134.890625 196.988281 135.410156 C 196.257812 136.339844 196.417969 137.683594 197.34375 138.414062 L 212.144531 150.058594 L 197.34375 161.703125 C 196.417969 162.433594 196.257812 163.78125 196.988281 164.707031 C 197.394531 165.226562 198.007812 165.523438 198.667969 165.523438 C 199.148438 165.523438 199.613281 165.359375 199.988281 165.066406 L 216.929688 151.742188 C 217.445312 151.332031 217.742188 150.71875 217.742188 150.058594 C 217.742188 149.402344 217.445312 148.789062 216.929688 148.378906 L 199.992188 135.054688 C 199.617188 134.757812 199.148438 134.597656 198.667969 134.597656 Z M 198.667969 135.875 C 198.855469 135.875 199.042969 135.933594 199.199219 136.058594 L 216.140625 149.382812 C 216.347656 149.546875 216.464844 149.792969 216.464844 150.058594 C 216.464844 150.324219 216.347656 150.574219 216.140625 150.738281 L 199.199219 164.0625 C 199.042969 164.1875 198.855469 164.246094 198.667969 164.246094 C 198.414062 164.246094 198.160156 164.132812 197.992188 163.917969 C 197.699219 163.542969 197.761719 163 198.136719 162.707031 L 214.210938 150.058594 L 198.136719 137.410156 C 197.761719 137.117188 197.699219 136.574219 197.992188 136.199219 C 198.160156 135.984375 198.414062 135.875 198.667969 135.875 " fill-opacity="1" fill-rule="nonzero"/></g><path fill="#03fa6e" d="M 179.078125 172.925781 C 178.890625 172.925781 178.710938 172.890625 178.535156 172.824219 C 178.164062 172.679688 177.867188 172.398438 177.707031 172.03125 C 177.542969 171.664062 177.535156 171.257812 177.679688 170.882812 L 194.21875 128.152344 C 194.441406 127.578125 195.003906 127.195312 195.617188 127.195312 C 195.804688 127.195312 195.988281 127.230469 196.164062 127.296875 C 196.929688 127.59375 197.316406 128.464844 197.019531 129.238281 L 180.476562 171.96875 C 180.257812 172.539062 179.691406 172.925781 179.078125 172.925781 " fill-opacity="1" fill-rule="nonzero"/><g clip-path="url(#31450e3886)"><path fill="#03fa6e" d="M 195.617188 126.554688 C 194.742188 126.554688 193.9375 127.105469 193.625 127.921875 L 177.082031 170.652344 C 176.878906 171.1875 176.890625 171.765625 177.121094 172.289062 C 177.351562 172.8125 177.773438 173.214844 178.304688 173.417969 C 178.554688 173.515625 178.8125 173.566406 179.078125 173.566406 C 179.953125 173.566406 180.757812 173.015625 181.074219 172.199219 L 197.613281 129.46875 C 198.039062 128.367188 197.492188 127.125 196.390625 126.699219 C 196.144531 126.601562 195.882812 126.554688 195.617188 126.554688 Z M 195.617188 127.832031 C 195.722656 127.832031 195.828125 127.851562 195.929688 127.890625 C 196.375 128.0625 196.59375 128.558594 196.421875 129.003906 L 179.878906 171.734375 C 179.75 172.078125 179.421875 172.289062 179.078125 172.289062 C 178.972656 172.289062 178.867188 172.269531 178.765625 172.230469 C 178.320312 172.058594 178.101562 171.558594 178.277344 171.113281 L 194.816406 128.382812 C 194.949219 128.042969 195.273438 127.832031 195.617188 127.832031 " fill-opacity="1" fill-rule="nonzero"/></g><g fill="#ffffff" fill-opacity="0.4"><g transform="translate(73.109187, 234.128145)"><g><path d="M 4.09375 4.234375 L 1.03125 4.234375 L 1.03125 -10.421875 C 1.695312 -10.691406 2.441406 -10.9375 3.265625 -11.15625 C 4.097656 -11.375 5.03125 -11.484375 6.0625 -11.484375 C 7.3125 -11.484375 8.394531 -11.222656 9.3125 -10.703125 C 10.226562 -10.191406 10.9375 -9.492188 11.4375 -8.609375 C 11.9375 -7.734375 12.1875 -6.726562 12.1875 -5.59375 L 12.1875 -5.5625 C 12.1875 -4.445312 11.945312 -3.445312 11.46875 -2.5625 C 10.988281 -1.675781 10.300781 -0.976562 9.40625 -0.46875 C 8.519531 0.03125 7.445312 0.28125 6.1875 0.28125 C 5.832031 0.28125 5.476562 0.25 5.125 0.1875 C 4.769531 0.132812 4.425781 0.0664062 4.09375 -0.015625 Z M 6.0625 -2.4375 C 7.070312 -2.4375 7.832031 -2.734375 8.34375 -3.328125 C 8.851562 -3.929688 9.109375 -4.675781 9.109375 -5.5625 L 9.109375 -5.59375 C 9.109375 -6.488281 8.851562 -7.238281 8.34375 -7.84375 C 7.832031 -8.445312 7.070312 -8.75 6.0625 -8.75 C 5.351562 -8.75 4.695312 -8.671875 4.09375 -8.515625 L 4.09375 -2.75 C 4.394531 -2.675781 4.71875 -2.601562 5.0625 -2.53125 C 5.40625 -2.46875 5.738281 -2.4375 6.0625 -2.4375 Z M 6.0625 -2.4375 "/></g></g></g><g fill="#ffffff" fill-opacity="0.4"><g transform="translate(85.358683, 234.128145)"><g><path d="M 4.09375 0 L 1.03125 0 L 1.03125 -10.625 C 1.570312 -10.738281 2.128906 -10.828125 2.703125 -10.890625 C 3.273438 -10.953125 3.8125 -10.992188 4.3125 -11.015625 C 4.8125 -11.035156 5.226562 -11.046875 5.5625 -11.046875 L 7.71875 -11.046875 L 7.71875 -8.234375 L 6.0625 -8.234375 C 5.90625 -8.234375 5.6875 -8.222656 5.40625 -8.203125 C 5.125 -8.179688 4.859375 -8.160156 4.609375 -8.140625 C 4.359375 -8.117188 4.1875 -8.097656 4.09375 -8.078125 Z M 4.09375 0 "/></g></g></g><g fill="#ffffff" fill-opacity="0.4"><g transform="translate(93.069762, 234.128145)"><g><path d="M 6.90625 0.3125 C 5.707031 0.3125 4.644531 0.0546875 3.71875 -0.453125 C 2.800781 -0.972656 2.082031 -1.675781 1.5625 -2.5625 C 1.039062 -3.457031 0.78125 -4.46875 0.78125 -5.59375 L 0.78125 -5.609375 C 0.78125 -6.742188 1.039062 -7.753906 1.5625 -8.640625 C 2.082031 -9.523438 2.800781 -10.21875 3.71875 -10.71875 C 4.632812 -11.226562 5.695312 -11.484375 6.90625 -11.484375 C 8.113281 -11.484375 9.175781 -11.226562 10.09375 -10.71875 C 11.019531 -10.21875 11.742188 -9.523438 12.265625 -8.640625 C 12.785156 -7.753906 13.046875 -6.742188 13.046875 -5.609375 L 13.046875 -5.59375 C 13.046875 -4.46875 12.785156 -3.457031 12.265625 -2.5625 C 11.742188 -1.675781 11.019531 -0.972656 10.09375 -0.453125 C 9.175781 0.0546875 8.113281 0.3125 6.90625 0.3125 Z M 6.90625 -2.421875 C 7.519531 -2.421875 8.050781 -2.5625 8.5 -2.84375 C 8.957031 -3.125 9.316406 -3.503906 9.578125 -3.984375 C 9.835938 -4.472656 9.96875 -5.007812 9.96875 -5.59375 L 9.96875 -5.640625 C 9.96875 -6.222656 9.84375 -6.75 9.59375 -7.21875 C 9.34375 -7.6875 8.988281 -8.054688 8.53125 -8.328125 C 8.070312 -8.609375 7.53125 -8.75 6.90625 -8.75 C 6.289062 -8.75 5.753906 -8.609375 5.296875 -8.328125 C 4.835938 -8.054688 4.476562 -7.6875 4.21875 -7.21875 C 3.96875 -6.75 3.84375 -6.222656 3.84375 -5.640625 L 3.84375 -5.59375 C 3.84375 -5.007812 3.96875 -4.472656 4.21875 -3.984375 C 4.476562 -3.503906 4.835938 -3.125 5.296875 -2.84375 C 5.765625 -2.5625 6.300781 -2.421875 6.90625 -2.421875 Z M 6.90625 -2.421875 "/></g></g></g><g fill="#ffffff" fill-opacity="0.4"><g transform="translate(106.146161, 234.128145)"><g><path d="M 7.140625 -11.484375 C 8.085938 -11.484375 8.988281 -11.367188 9.84375 -11.140625 C 10.695312 -10.910156 11.410156 -10.660156 11.984375 -10.390625 L 11.984375 0.078125 C 11.984375 1.179688 11.75 2.050781 11.28125 2.6875 C 10.8125 3.320312 10.191406 3.769531 9.421875 4.03125 C 8.648438 4.300781 7.816406 4.4375 6.921875 4.4375 C 6.472656 4.4375 6.015625 4.40625 5.546875 4.34375 C 5.078125 4.289062 4.644531 4.21875 4.25 4.125 C 3.863281 4.039062 3.554688 3.945312 3.328125 3.84375 L 2.65625 1.015625 C 3.03125 1.171875 3.445312 1.300781 3.90625 1.40625 C 4.375 1.519531 4.84375 1.601562 5.3125 1.65625 C 5.78125 1.71875 6.179688 1.75 6.515625 1.75 C 7.429688 1.75 8.0625 1.59375 8.40625 1.28125 C 8.75 0.96875 8.921875 0.460938 8.921875 -0.234375 L 8.921875 -0.6875 C 8.628906 -0.632812 8.328125 -0.585938 8.015625 -0.546875 C 7.703125 -0.515625 7.378906 -0.5 7.046875 -0.5 C 5.066406 -0.5 3.523438 -0.984375 2.421875 -1.953125 C 1.328125 -2.921875 0.78125 -4.285156 0.78125 -6.046875 L 0.78125 -6.078125 C 0.78125 -7.835938 1.351562 -9.175781 2.5 -10.09375 C 3.644531 -11.019531 5.191406 -11.484375 7.140625 -11.484375 Z M 3.84375 -6.015625 L 3.84375 -6 C 3.84375 -5.050781 4.128906 -4.351562 4.703125 -3.90625 C 5.285156 -3.457031 6.101562 -3.234375 7.15625 -3.234375 C 7.414062 -3.234375 7.691406 -3.25 7.984375 -3.28125 C 8.285156 -3.3125 8.597656 -3.363281 8.921875 -3.4375 L 8.921875 -8.484375 C 8.628906 -8.585938 8.332031 -8.65625 8.03125 -8.6875 C 7.726562 -8.726562 7.429688 -8.75 7.140625 -8.75 C 6.097656 -8.75 5.285156 -8.53125 4.703125 -8.09375 C 4.128906 -7.65625 3.84375 -6.960938 3.84375 -6.015625 Z M 3.84375 -6.015625 "/></g></g></g><g fill="#ffffff" fill-opacity="0.4"><g transform="translate(118.43411, 234.128145)"><g><path d="M 4.09375 0 L 1.03125 0 L 1.03125 -10.625 C 1.570312 -10.738281 2.128906 -10.828125 2.703125 -10.890625 C 3.273438 -10.953125 3.8125 -10.992188 4.3125 -11.015625 C 4.8125 -11.035156 5.226562 -11.046875 5.5625 -11.046875 L 7.71875 -11.046875 L 7.71875 -8.234375 L 6.0625 -8.234375 C 5.90625 -8.234375 5.6875 -8.222656 5.40625 -8.203125 C 5.125 -8.179688 4.859375 -8.160156 4.609375 -8.140625 C 4.359375 -8.117188 4.1875 -8.097656 4.09375 -8.078125 Z M 4.09375 0 "/></g></g></g><g fill="#ffffff" fill-opacity="0.4"><g transform="translate(126.14519, 234.128145)"><g><path d="M 6.1875 -11.421875 C 7.21875 -11.421875 8.109375 -11.28125 8.859375 -11 C 9.617188 -10.726562 10.207031 -10.273438 10.625 -9.640625 C 11.039062 -9.003906 11.25 -8.144531 11.25 -7.0625 L 11.25 -0.234375 C 10.5 -0.0664062 9.664062 0.0625 8.75 0.15625 C 7.84375 0.257812 7.007812 0.3125 6.25 0.3125 C 5.125 0.3125 4.148438 0.195312 3.328125 -0.03125 C 2.503906 -0.269531 1.867188 -0.648438 1.421875 -1.171875 C 0.984375 -1.703125 0.765625 -2.394531 0.765625 -3.25 L 0.765625 -3.296875 C 0.765625 -4.472656 1.207031 -5.335938 2.09375 -5.890625 C 2.976562 -6.441406 4.175781 -6.71875 5.6875 -6.71875 C 6.101562 -6.71875 6.507812 -6.707031 6.90625 -6.6875 C 7.3125 -6.664062 7.738281 -6.625 8.1875 -6.5625 L 8.1875 -6.96875 C 8.1875 -7.65625 7.957031 -8.140625 7.5 -8.421875 C 7.039062 -8.703125 6.390625 -8.84375 5.546875 -8.84375 C 4.992188 -8.84375 4.359375 -8.773438 3.640625 -8.640625 C 2.921875 -8.503906 2.257812 -8.316406 1.65625 -8.078125 L 2.328125 -10.796875 C 2.609375 -10.910156 2.957031 -11.015625 3.375 -11.109375 C 3.800781 -11.203125 4.257812 -11.273438 4.75 -11.328125 C 5.25 -11.390625 5.726562 -11.421875 6.1875 -11.421875 Z M 3.90625 -3.4375 L 3.90625 -3.40625 C 3.90625 -2.925781 4.117188 -2.582031 4.546875 -2.375 C 4.972656 -2.175781 5.578125 -2.078125 6.359375 -2.078125 C 6.898438 -2.078125 7.507812 -2.128906 8.1875 -2.234375 L 8.1875 -4.609375 C 7.882812 -4.660156 7.566406 -4.695312 7.234375 -4.71875 C 6.898438 -4.75 6.609375 -4.765625 6.359375 -4.765625 C 5.597656 -4.765625 5 -4.664062 4.5625 -4.46875 C 4.125 -4.269531 3.90625 -3.925781 3.90625 -3.4375 Z M 3.90625 -3.4375 "/></g></g></g><g fill="#ffffff" fill-opacity="0.4"><g transform="translate(137.663926, 234.128145)"><g><path d="M 4.09375 0 L 1.03125 0 L 1.03125 -10.921875 C 1.664062 -11.035156 2.289062 -11.132812 2.90625 -11.21875 C 3.53125 -11.300781 4.101562 -11.367188 4.625 -11.421875 C 5.144531 -11.472656 5.566406 -11.5 5.890625 -11.5 C 6.585938 -11.5 7.226562 -11.382812 7.8125 -11.15625 C 8.394531 -10.9375 8.863281 -10.554688 9.21875 -10.015625 C 9.613281 -10.546875 10.125 -10.925781 10.75 -11.15625 C 11.375 -11.382812 12.085938 -11.5 12.890625 -11.5 C 13.847656 -11.5 14.671875 -11.359375 15.359375 -11.078125 C 16.046875 -10.804688 16.570312 -10.359375 16.9375 -9.734375 C 17.3125 -9.117188 17.5 -8.28125 17.5 -7.21875 L 17.5 0 L 14.4375 0 L 14.4375 -6.859375 C 14.4375 -7.441406 14.316406 -7.90625 14.078125 -8.25 C 13.847656 -8.59375 13.351562 -8.765625 12.59375 -8.765625 C 11.851562 -8.765625 11.359375 -8.59375 11.109375 -8.25 C 10.867188 -7.90625 10.75 -7.441406 10.75 -6.859375 L 10.75 0 L 7.71875 0 L 7.71875 -6.859375 C 7.71875 -7.566406 7.539062 -8.0625 7.1875 -8.34375 C 6.832031 -8.625 6.351562 -8.765625 5.75 -8.765625 C 5.507812 -8.765625 5.25 -8.75 4.96875 -8.71875 C 4.695312 -8.6875 4.40625 -8.640625 4.09375 -8.578125 Z M 4.09375 0 "/></g></g></g><g fill="#ffffff" fill-opacity="0.4"><g transform="translate(155.471051, 234.128145)"><g><path d="M 6.1875 -11.421875 C 7.21875 -11.421875 8.109375 -11.28125 8.859375 -11 C 9.617188 -10.726562 10.207031 -10.273438 10.625 -9.640625 C 11.039062 -9.003906 11.25 -8.144531 11.25 -7.0625 L 11.25 -0.234375 C 10.5 -0.0664062 9.664062 0.0625 8.75 0.15625 C 7.84375 0.257812 7.007812 0.3125 6.25 0.3125 C 5.125 0.3125 4.148438 0.195312 3.328125 -0.03125 C 2.503906 -0.269531 1.867188 -0.648438 1.421875 -1.171875 C 0.984375 -1.703125 0.765625 -2.394531 0.765625 -3.25 L 0.765625 -3.296875 C 0.765625 -4.472656 1.207031 -5.335938 2.09375 -5.890625 C 2.976562 -6.441406 4.175781 -6.71875 5.6875 -6.71875 C 6.101562 -6.71875 6.507812 -6.707031 6.90625 -6.6875 C 7.3125 -6.664062 7.738281 -6.625 8.1875 -6.5625 L 8.1875 -6.96875 C 8.1875 -7.65625 7.957031 -8.140625 7.5 -8.421875 C 7.039062 -8.703125 6.390625 -8.84375 5.546875 -8.84375 C 4.992188 -8.84375 4.359375 -8.773438 3.640625 -8.640625 C 2.921875 -8.503906 2.257812 -8.316406 1.65625 -8.078125 L 2.328125 -10.796875 C 2.609375 -10.910156 2.957031 -11.015625 3.375 -11.109375 C 3.800781 -11.203125 4.257812 -11.273438 4.75 -11.328125 C 5.25 -11.390625 5.726562 -11.421875 6.1875 -11.421875 Z M 3.90625 -3.4375 L 3.90625 -3.40625 C 3.90625 -2.925781 4.117188 -2.582031 4.546875 -2.375 C 4.972656 -2.175781 5.578125 -2.078125 6.359375 -2.078125 C 6.898438 -2.078125 7.507812 -2.128906 8.1875 -2.234375 L 8.1875 -4.609375 C 7.882812 -4.660156 7.566406 -4.695312 7.234375 -4.71875 C 6.898438 -4.75 6.609375 -4.765625 6.359375 -4.765625 C 5.597656 -4.765625 5 -4.664062 4.5625 -4.46875 C 4.125 -4.269531 3.90625 -3.925781 3.90625 -3.4375 Z M 3.90625 -3.4375 "/></g></g></g><g fill="#ffffff" fill-opacity="0.4"><g transform="translate(166.989786, 234.128145)"><g><path d="M 6.90625 0.3125 C 5.644531 0.3125 4.554688 0.0546875 3.640625 -0.453125 C 2.722656 -0.972656 2.015625 -1.675781 1.515625 -2.5625 C 1.023438 -3.445312 0.78125 -4.453125 0.78125 -5.578125 L 0.78125 -5.609375 C 0.78125 -6.742188 1.019531 -7.753906 1.5 -8.640625 C 1.976562 -9.523438 2.664062 -10.21875 3.5625 -10.71875 C 4.457031 -11.226562 5.535156 -11.484375 6.796875 -11.484375 C 7.148438 -11.484375 7.503906 -11.453125 7.859375 -11.390625 C 8.210938 -11.335938 8.554688 -11.269531 8.890625 -11.1875 L 8.890625 -15.59375 L 11.921875 -15.59375 L 11.921875 -0.765625 C 11.140625 -0.378906 10.363281 -0.101562 9.59375 0.0625 C 8.820312 0.226562 7.925781 0.3125 6.90625 0.3125 Z M 6.90625 -2.421875 C 7.28125 -2.421875 7.628906 -2.441406 7.953125 -2.484375 C 8.273438 -2.535156 8.585938 -2.597656 8.890625 -2.671875 L 8.890625 -8.46875 C 8.585938 -8.53125 8.265625 -8.59375 7.921875 -8.65625 C 7.578125 -8.71875 7.238281 -8.75 6.90625 -8.75 C 5.90625 -8.75 5.144531 -8.445312 4.625 -7.84375 C 4.101562 -7.238281 3.84375 -6.492188 3.84375 -5.609375 L 3.84375 -5.578125 C 3.84375 -4.691406 4.101562 -3.941406 4.625 -3.328125 C 5.144531 -2.722656 5.90625 -2.421875 6.90625 -2.421875 Z M 6.90625 -2.421875 "/></g></g></g><g fill="#ffffff" fill-opacity="0.4"><g transform="translate(179.239284, 234.128145)"><g><path d="M 6.90625 0.3125 C 5.707031 0.3125 4.644531 0.0546875 3.71875 -0.453125 C 2.800781 -0.972656 2.082031 -1.675781 1.5625 -2.5625 C 1.039062 -3.457031 0.78125 -4.46875 0.78125 -5.59375 L 0.78125 -5.609375 C 0.78125 -6.742188 1.039062 -7.753906 1.5625 -8.640625 C 2.082031 -9.523438 2.800781 -10.21875 3.71875 -10.71875 C 4.632812 -11.226562 5.695312 -11.484375 6.90625 -11.484375 C 8.113281 -11.484375 9.175781 -11.226562 10.09375 -10.71875 C 11.019531 -10.21875 11.742188 -9.523438 12.265625 -8.640625 C 12.785156 -7.753906 13.046875 -6.742188 13.046875 -5.609375 L 13.046875 -5.59375 C 13.046875 -4.46875 12.785156 -3.457031 12.265625 -2.5625 C 11.742188 -1.675781 11.019531 -0.972656 10.09375 -0.453125 C 9.175781 0.0546875 8.113281 0.3125 6.90625 0.3125 Z M 6.90625 -2.421875 C 7.519531 -2.421875 8.050781 -2.5625 8.5 -2.84375 C 8.957031 -3.125 9.316406 -3.503906 9.578125 -3.984375 C 9.835938 -4.472656 9.96875 -5.007812 9.96875 -5.59375 L 9.96875 -5.640625 C 9.96875 -6.222656 9.84375 -6.75 9.59375 -7.21875 C 9.34375 -7.6875 8.988281 -8.054688 8.53125 -8.328125 C 8.070312 -8.609375 7.53125 -8.75 6.90625 -8.75 C 6.289062 -8.75 5.753906 -8.609375 5.296875 -8.328125 C 4.835938 -8.054688 4.476562 -7.6875 4.21875 -7.21875 C 3.96875 -6.75 3.84375 -6.222656 3.84375 -5.640625 L 3.84375 -5.59375 C 3.84375 -5.007812 3.96875 -4.472656 4.21875 -3.984375 C 4.476562 -3.503906 4.835938 -3.125 5.296875 -2.84375 C 5.765625 -2.5625 6.300781 -2.421875 6.90625 -2.421875 Z M 6.90625 -2.421875 "/></g></g></g><g fill="#ffffff" fill-opacity="0.4"><g transform="translate(192.31568, 234.128145)"><g><path d="M 4.09375 0 L 1.03125 0 L 1.03125 -10.625 C 1.570312 -10.738281 2.128906 -10.828125 2.703125 -10.890625 C 3.273438 -10.953125 3.8125 -10.992188 4.3125 -11.015625 C 4.8125 -11.035156 5.226562 -11.046875 5.5625 -11.046875 L 7.71875 -11.046875 L 7.71875 -8.234375 L 6.0625 -8.234375 C 5.90625 -8.234375 5.6875 -8.222656 5.40625 -8.203125 C 5.125 -8.179688 4.859375 -8.160156 4.609375 -8.140625 C 4.359375 -8.117188 4.1875 -8.097656 4.09375 -8.078125 Z M 4.09375 0 "/></g></g></g><g fill="#03fa6e" fill-opacity="1"><g transform="translate(71.90176, 232.920717)"><g><path d="M 4.09375 4.234375 L 1.03125 4.234375 L 1.03125 -10.421875 C 1.695312 -10.691406 2.441406 -10.9375 3.265625 -11.15625 C 4.097656 -11.375 5.03125 -11.484375 6.0625 -11.484375 C 7.3125 -11.484375 8.394531 -11.222656 9.3125 -10.703125 C 10.226562 -10.191406 10.9375 -9.492188 11.4375 -8.609375 C 11.9375 -7.734375 12.1875 -6.726562 12.1875 -5.59375 L 12.1875 -5.5625 C 12.1875 -4.445312 11.945312 -3.445312 11.46875 -2.5625 C 10.988281 -1.675781 10.300781 -0.976562 9.40625 -0.46875 C 8.519531 0.03125 7.445312 0.28125 6.1875 0.28125 C 5.832031 0.28125 5.476562 0.25 5.125 0.1875 C 4.769531 0.132812 4.425781 0.0664062 4.09375 -0.015625 Z M 6.0625 -2.4375 C 7.070312 -2.4375 7.832031 -2.734375 8.34375 -3.328125 C 8.851562 -3.929688 9.109375 -4.675781 9.109375 -5.5625 L 9.109375 -5.59375 C 9.109375 -6.488281 8.851562 -7.238281 8.34375 -7.84375 C 7.832031 -8.445312 7.070312 -8.75 6.0625 -8.75 C 5.351562 -8.75 4.695312 -8.671875 4.09375 -8.515625 L 4.09375 -2.75 C 4.394531 -2.675781 4.71875 -2.601562 5.0625 -2.53125 C 5.40625 -2.46875 5.738281 -2.4375 6.0625 -2.4375 Z M 6.0625 -2.4375 "/></g></g></g><g fill="#03fa6e" fill-opacity="1"><g transform="translate(84.151256, 232.920717)"><g><path d="M 4.09375 0 L 1.03125 0 L 1.03125 -10.625 C 1.570312 -10.738281 2.128906 -10.828125 2.703125 -10.890625 C 3.273438 -10.953125 3.8125 -10.992188 4.3125 -11.015625 C 4.8125 -11.035156 5.226562 -11.046875 5.5625 -11.046875 L 7.71875 -11.046875 L 7.71875 -8.234375 L 6.0625 -8.234375 C 5.90625 -8.234375 5.6875 -8.222656 5.40625 -8.203125 C 5.125 -8.179688 4.859375 -8.160156 4.609375 -8.140625 C 4.359375 -8.117188 4.1875 -8.097656 4.09375 -8.078125 Z M 4.09375 0 "/></g></g></g><g fill="#03fa6e" fill-opacity="1"><g transform="translate(91.862335, 232.920717)"><g><path d="M 6.90625 0.3125 C 5.707031 0.3125 4.644531 0.0546875 3.71875 -0.453125 C 2.800781 -0.972656 2.082031 -1.675781 1.5625 -2.5625 C 1.039062 -3.457031 0.78125 -4.46875 0.78125 -5.59375 L 0.78125 -5.609375 C 0.78125 -6.742188 1.039062 -7.753906 1.5625 -8.640625 C 2.082031 -9.523438 2.800781 -10.21875 3.71875 -10.71875 C 4.632812 -11.226562 5.695312 -11.484375 6.90625 -11.484375 C 8.113281 -11.484375 9.175781 -11.226562 10.09375 -10.71875 C 11.019531 -10.21875 11.742188 -9.523438 12.265625 -8.640625 C 12.785156 -7.753906 13.046875 -6.742188 13.046875 -5.609375 L 13.046875 -5.59375 C 13.046875 -4.46875 12.785156 -3.457031 12.265625 -2.5625 C 11.742188 -1.675781 11.019531 -0.972656 10.09375 -0.453125 C 9.175781 0.0546875 8.113281 0.3125 6.90625 0.3125 Z M 6.90625 -2.421875 C 7.519531 -2.421875 8.050781 -2.5625 8.5 -2.84375 C 8.957031 -3.125 9.316406 -3.503906 9.578125 -3.984375 C 9.835938 -4.472656 9.96875 -5.007812 9.96875 -5.59375 L 9.96875 -5.640625 C 9.96875 -6.222656 9.84375 -6.75 9.59375 -7.21875 C 9.34375 -7.6875 8.988281 -8.054688 8.53125 -8.328125 C 8.070312 -8.609375 7.53125 -8.75 6.90625 -8.75 C 6.289062 -8.75 5.753906 -8.609375 5.296875 -8.328125 C 4.835938 -8.054688 4.476562 -7.6875 4.21875 -7.21875 C 3.96875 -6.75 3.84375 -6.222656 3.84375 -5.640625 L 3.84375 -5.59375 C 3.84375 -5.007812 3.96875 -4.472656 4.21875 -3.984375 C 4.476562 -3.503906 4.835938 -3.125 5.296875 -2.84375 C 5.765625 -2.5625 6.300781 -2.421875 6.90625 -2.421875 Z M 6.90625 -2.421875 "/></g></g></g><g fill="#03fa6e" fill-opacity="1"><g transform="translate(104.938734, 232.920717)"><g><path d="M 7.140625 -11.484375 C 8.085938 -11.484375 8.988281 -11.367188 9.84375 -11.140625 C 10.695312 -10.910156 11.410156 -10.660156 11.984375 -10.390625 L 11.984375 0.078125 C 11.984375 1.179688 11.75 2.050781 11.28125 2.6875 C 10.8125 3.320312 10.191406 3.769531 9.421875 4.03125 C 8.648438 4.300781 7.816406 4.4375 6.921875 4.4375 C 6.472656 4.4375 6.015625 4.40625 5.546875 4.34375 C 5.078125 4.289062 4.644531 4.21875 4.25 4.125 C 3.863281 4.039062 3.554688 3.945312 3.328125 3.84375 L 2.65625 1.015625 C 3.03125 1.171875 3.445312 1.300781 3.90625 1.40625 C 4.375 1.519531 4.84375 1.601562 5.3125 1.65625 C 5.78125 1.71875 6.179688 1.75 6.515625 1.75 C 7.429688 1.75 8.0625 1.59375 8.40625 1.28125 C 8.75 0.96875 8.921875 0.460938 8.921875 -0.234375 L 8.921875 -0.6875 C 8.628906 -0.632812 8.328125 -0.585938 8.015625 -0.546875 C 7.703125 -0.515625 7.378906 -0.5 7.046875 -0.5 C 5.066406 -0.5 3.523438 -0.984375 2.421875 -1.953125 C 1.328125 -2.921875 0.78125 -4.285156 0.78125 -6.046875 L 0.78125 -6.078125 C 0.78125 -7.835938 1.351562 -9.175781 2.5 -10.09375 C 3.644531 -11.019531 5.191406 -11.484375 7.140625 -11.484375 Z M 3.84375 -6.015625 L 3.84375 -6 C 3.84375 -5.050781 4.128906 -4.351562 4.703125 -3.90625 C 5.285156 -3.457031 6.101562 -3.234375 7.15625 -3.234375 C 7.414062 -3.234375 7.691406 -3.25 7.984375 -3.28125 C 8.285156 -3.3125 8.597656 -3.363281 8.921875 -3.4375 L 8.921875 -8.484375 C 8.628906 -8.585938 8.332031 -8.65625 8.03125 -8.6875 C 7.726562 -8.726562 7.429688 -8.75 7.140625 -8.75 C 6.097656 -8.75 5.285156 -8.53125 4.703125 -8.09375 C 4.128906 -7.65625 3.84375 -6.960938 3.84375 -6.015625 Z M 3.84375 -6.015625 "/></g></g></g><g fill="#03fa6e" fill-opacity="1"><g transform="translate(117.226684, 232.920717)"><g><path d="M 4.09375 0 L 1.03125 0 L 1.03125 -10.625 C 1.570312 -10.738281 2.128906 -10.828125 2.703125 -10.890625 C 3.273438 -10.953125 3.8125 -10.992188 4.3125 -11.015625 C 4.8125 -11.035156 5.226562 -11.046875 5.5625 -11.046875 L 7.71875 -11.046875 L 7.71875 -8.234375 L 6.0625 -8.234375 C 5.90625 -8.234375 5.6875 -8.222656 5.40625 -8.203125 C 5.125 -8.179688 4.859375 -8.160156 4.609375 -8.140625 C 4.359375 -8.117188 4.1875 -8.097656 4.09375 -8.078125 Z M 4.09375 0 "/></g></g></g><g fill="#03fa6e" fill-opacity="1"><g transform="translate(124.937764, 232.920717)"><g><path d="M 6.1875 -11.421875 C 7.21875 -11.421875 8.109375 -11.28125 8.859375 -11 C 9.617188 -10.726562 10.207031 -10.273438 10.625 -9.640625 C 11.039062 -9.003906 11.25 -8.144531 11.25 -7.0625 L 11.25 -0.234375 C 10.5 -0.0664062 9.664062 0.0625 8.75 0.15625 C 7.84375 0.257812 7.007812 0.3125 6.25 0.3125 C 5.125 0.3125 4.148438 0.195312 3.328125 -0.03125 C 2.503906 -0.269531 1.867188 -0.648438 1.421875 -1.171875 C 0.984375 -1.703125 0.765625 -2.394531 0.765625 -3.25 L 0.765625 -3.296875 C 0.765625 -4.472656 1.207031 -5.335938 2.09375 -5.890625 C 2.976562 -6.441406 4.175781 -6.71875 5.6875 -6.71875 C 6.101562 -6.71875 6.507812 -6.707031 6.90625 -6.6875 C 7.3125 -6.664062 7.738281 -6.625 8.1875 -6.5625 L 8.1875 -6.96875 C 8.1875 -7.65625 7.957031 -8.140625 7.5 -8.421875 C 7.039062 -8.703125 6.390625 -8.84375 5.546875 -8.84375 C 4.992188 -8.84375 4.359375 -8.773438 3.640625 -8.640625 C 2.921875 -8.503906 2.257812 -8.316406 1.65625 -8.078125 L 2.328125 -10.796875 C 2.609375 -10.910156 2.957031 -11.015625 3.375 -11.109375 C 3.800781 -11.203125 4.257812 -11.273438 4.75 -11.328125 C 5.25 -11.390625 5.726562 -11.421875 6.1875 -11.421875 Z M 3.90625 -3.4375 L 3.90625 -3.40625 C 3.90625 -2.925781 4.117188 -2.582031 4.546875 -2.375 C 4.972656 -2.175781 5.578125 -2.078125 6.359375 -2.078125 C 6.898438 -2.078125 7.507812 -2.128906 8.1875 -2.234375 L 8.1875 -4.609375 C 7.882812 -4.660156 7.566406 -4.695312 7.234375 -4.71875 C 6.898438 -4.75 6.609375 -4.765625 6.359375 -4.765625 C 5.597656 -4.765625 5 -4.664062 4.5625 -4.46875 C 4.125 -4.269531 3.90625 -3.925781 3.90625 -3.4375 Z M 3.90625 -3.4375 "/></g></g></g><g fill="#03fa6e" fill-opacity="1"><g transform="translate(136.456499, 232.920717)"><g><path d="M 4.09375 0 L 1.03125 0 L 1.03125 -10.921875 C 1.664062 -11.035156 2.289062 -11.132812 2.90625 -11.21875 C 3.53125 -11.300781 4.101562 -11.367188 4.625 -11.421875 C 5.144531 -11.472656 5.566406 -11.5 5.890625 -11.5 C 6.585938 -11.5 7.226562 -11.382812 7.8125 -11.15625 C 8.394531 -10.9375 8.863281 -10.554688 9.21875 -10.015625 C 9.613281 -10.546875 10.125 -10.925781 10.75 -11.15625 C 11.375 -11.382812 12.085938 -11.5 12.890625 -11.5 C 13.847656 -11.5 14.671875 -11.359375 15.359375 -11.078125 C 16.046875 -10.804688 16.570312 -10.359375 16.9375 -9.734375 C 17.3125 -9.117188 17.5 -8.28125 17.5 -7.21875 L 17.5 0 L 14.4375 0 L 14.4375 -6.859375 C 14.4375 -7.441406 14.316406 -7.90625 14.078125 -8.25 C 13.847656 -8.59375 13.351562 -8.765625 12.59375 -8.765625 C 11.851562 -8.765625 11.359375 -8.59375 11.109375 -8.25 C 10.867188 -7.90625 10.75 -7.441406 10.75 -6.859375 L 10.75 0 L 7.71875 0 L 7.71875 -6.859375 C 7.71875 -7.566406 7.539062 -8.0625 7.1875 -8.34375 C 6.832031 -8.625 6.351562 -8.765625 5.75 -8.765625 C 5.507812 -8.765625 5.25 -8.75 4.96875 -8.71875 C 4.695312 -8.6875 4.40625 -8.640625 4.09375 -8.578125 Z M 4.09375 0 "/></g></g></g><g fill="#03fa6e" fill-opacity="1"><g transform="translate(154.263625, 232.920717)"><g><path d="M 6.1875 -11.421875 C 7.21875 -11.421875 8.109375 -11.28125 8.859375 -11 C 9.617188 -10.726562 10.207031 -10.273438 10.625 -9.640625 C 11.039062 -9.003906 11.25 -8.144531 11.25 -7.0625 L 11.25 -0.234375 C 10.5 -0.0664062 9.664062 0.0625 8.75 0.15625 C 7.84375 0.257812 7.007812 0.3125 6.25 0.3125 C 5.125 0.3125 4.148438 0.195312 3.328125 -0.03125 C 2.503906 -0.269531 1.867188 -0.648438 1.421875 -1.171875 C 0.984375 -1.703125 0.765625 -2.394531 0.765625 -3.25 L 0.765625 -3.296875 C 0.765625 -4.472656 1.207031 -5.335938 2.09375 -5.890625 C 2.976562 -6.441406 4.175781 -6.71875 5.6875 -6.71875 C 6.101562 -6.71875 6.507812 -6.707031 6.90625 -6.6875 C 7.3125 -6.664062 7.738281 -6.625 8.1875 -6.5625 L 8.1875 -6.96875 C 8.1875 -7.65625 7.957031 -8.140625 7.5 -8.421875 C 7.039062 -8.703125 6.390625 -8.84375 5.546875 -8.84375 C 4.992188 -8.84375 4.359375 -8.773438 3.640625 -8.640625 C 2.921875 -8.503906 2.257812 -8.316406 1.65625 -8.078125 L 2.328125 -10.796875 C 2.609375 -10.910156 2.957031 -11.015625 3.375 -11.109375 C 3.800781 -11.203125 4.257812 -11.273438 4.75 -11.328125 C 5.25 -11.390625 5.726562 -11.421875 6.1875 -11.421875 Z M 3.90625 -3.4375 L 3.90625 -3.40625 C 3.90625 -2.925781 4.117188 -2.582031 4.546875 -2.375 C 4.972656 -2.175781 5.578125 -2.078125 6.359375 -2.078125 C 6.898438 -2.078125 7.507812 -2.128906 8.1875 -2.234375 L 8.1875 -4.609375 C 7.882812 -4.660156 7.566406 -4.695312 7.234375 -4.71875 C 6.898438 -4.75 6.609375 -4.765625 6.359375 -4.765625 C 5.597656 -4.765625 5 -4.664062 4.5625 -4.46875 C 4.125 -4.269531 3.90625 -3.925781 3.90625 -3.4375 Z M 3.90625 -3.4375 "/></g></g></g><g fill="#03fa6e" fill-opacity="1"><g transform="translate(165.78236, 232.920717)"><g><path d="M 6.90625 0.3125 C 5.644531 0.3125 4.554688 0.0546875 3.640625 -0.453125 C 2.722656 -0.972656 2.015625 -1.675781 1.515625 -2.5625 C 1.023438 -3.445312 0.78125 -4.453125 0.78125 -5.578125 L 0.78125 -5.609375 C 0.78125 -6.742188 1.019531 -7.753906 1.5 -8.640625 C 1.976562 -9.523438 2.664062 -10.21875 3.5625 -10.71875 C 4.457031 -11.226562 5.535156 -11.484375 6.796875 -11.484375 C 7.148438 -11.484375 7.503906 -11.453125 7.859375 -11.390625 C 8.210938 -11.335938 8.554688 -11.269531 8.890625 -11.1875 L 8.890625 -15.59375 L 11.921875 -15.59375 L 11.921875 -0.765625 C 11.140625 -0.378906 10.363281 -0.101562 9.59375 0.0625 C 8.820312 0.226562 7.925781 0.3125 6.90625 0.3125 Z M 6.90625 -2.421875 C 7.28125 -2.421875 7.628906 -2.441406 7.953125 -2.484375 C 8.273438 -2.535156 8.585938 -2.597656 8.890625 -2.671875 L 8.890625 -8.46875 C 8.585938 -8.53125 8.265625 -8.59375 7.921875 -8.65625 C 7.578125 -8.71875 7.238281 -8.75 6.90625 -8.75 C 5.90625 -8.75 5.144531 -8.445312 4.625 -7.84375 C 4.101562 -7.238281 3.84375 -6.492188 3.84375 -5.609375 L 3.84375 -5.578125 C 3.84375 -4.691406 4.101562 -3.941406 4.625 -3.328125 C 5.144531 -2.722656 5.90625 -2.421875 6.90625 -2.421875 Z M 6.90625 -2.421875 "/></g></g></g><g fill="#03fa6e" fill-opacity="1"><g transform="translate(178.031857, 232.920717)"><g><path d="M 6.90625 0.3125 C 5.707031 0.3125 4.644531 0.0546875 3.71875 -0.453125 C 2.800781 -0.972656 2.082031 -1.675781 1.5625 -2.5625 C 1.039062 -3.457031 0.78125 -4.46875 0.78125 -5.59375 L 0.78125 -5.609375 C 0.78125 -6.742188 1.039062 -7.753906 1.5625 -8.640625 C 2.082031 -9.523438 2.800781 -10.21875 3.71875 -10.71875 C 4.632812 -11.226562 5.695312 -11.484375 6.90625 -11.484375 C 8.113281 -11.484375 9.175781 -11.226562 10.09375 -10.71875 C 11.019531 -10.21875 11.742188 -9.523438 12.265625 -8.640625 C 12.785156 -7.753906 13.046875 -6.742188 13.046875 -5.609375 L 13.046875 -5.59375 C 13.046875 -4.46875 12.785156 -3.457031 12.265625 -2.5625 C 11.742188 -1.675781 11.019531 -0.972656 10.09375 -0.453125 C 9.175781 0.0546875 8.113281 0.3125 6.90625 0.3125 Z M 6.90625 -2.421875 C 7.519531 -2.421875 8.050781 -2.5625 8.5 -2.84375 C 8.957031 -3.125 9.316406 -3.503906 9.578125 -3.984375 C 9.835938 -4.472656 9.96875 -5.007812 9.96875 -5.59375 L 9.96875 -5.640625 C 9.96875 -6.222656 9.84375 -6.75 9.59375 -7.21875 C 9.34375 -7.6875 8.988281 -8.054688 8.53125 -8.328125 C 8.070312 -8.609375 7.53125 -8.75 6.90625 -8.75 C 6.289062 -8.75 5.753906 -8.609375 5.296875 -8.328125 C 4.835938 -8.054688 4.476562 -7.6875 4.21875 -7.21875 C 3.96875 -6.75 3.84375 -6.222656 3.84375 -5.640625 L 3.84375 -5.59375 C 3.84375 -5.007812 3.96875 -4.472656 4.21875 -3.984375 C 4.476562 -3.503906 4.835938 -3.125 5.296875 -2.84375 C 5.765625 -2.5625 6.300781 -2.421875 6.90625 -2.421875 Z M 6.90625 -2.421875 "/></g></g></g><g fill="#03fa6e" fill-opacity="1"><g transform="translate(191.108253, 232.920717)"><g><path d="M 4.09375 0 L 1.03125 0 L 1.03125 -10.625 C 1.570312 -10.738281 2.128906 -10.828125 2.703125 -10.890625 C 3.273438 -10.953125 3.8125 -10.992188 4.3125 -11.015625 C 4.8125 -11.035156 5.226562 -11.046875 5.5625 -11.046875 L 7.71875 -11.046875 L 7.71875 -8.234375 L 6.0625 -8.234375 C 5.90625 -8.234375 5.6875 -8.222656 5.40625 -8.203125 C 5.125 -8.179688 4.859375 -8.160156 4.609375 -8.140625 C 4.359375 -8.117188 4.1875 -8.097656 4.09375 -8.078125 Z M 4.09375 0 "/></g></g></g><g fill="#ffffff" fill-opacity="0.4"><g transform="translate(200.034963, 234.128145)"><g/></g></g><g fill="#ffffff" fill-opacity="0.4"><g transform="translate(202.5538, 234.128145)"><g/></g></g><g fill="#ffffff" fill-opacity="0.4"><g transform="translate(205.072637, 234.128145)"><g/></g></g><g fill="#03fa6e" fill-opacity="1"><g transform="translate(198.827537, 232.920717)"><g/></g></g><g fill="#03fa6e" fill-opacity="1"><g transform="translate(201.346374, 232.920717)"><g/></g></g><g fill="#03fa6e" fill-opacity="1"><g transform="translate(203.865211, 232.920717)"><g/></g></g><g fill="#ffffff" fill-opacity="0.4"><g transform="translate(207.593553, 234.128145)"><g><path d="M 5.421875 0 L 2.359375 0 L 2.359375 -8.265625 L 0.4375 -8.265625 L 0.4375 -11.046875 L 2.359375 -11.046875 L 2.359375 -12.078125 C 2.359375 -13.253906 2.75 -14.132812 3.53125 -14.71875 C 4.320312 -15.300781 5.46875 -15.59375 6.96875 -15.59375 L 9.484375 -15.59375 L 9.484375 -13.375 L 7.265625 -13.375 C 6.597656 -13.375 6.125 -13.242188 5.84375 -12.984375 C 5.5625 -12.722656 5.421875 -12.375 5.421875 -11.9375 L 5.421875 -11.046875 L 9.46875 -11.046875 L 9.46875 -8.265625 L 5.421875 -8.265625 Z M 5.421875 0 "/></g></g></g><g fill="#ffffff" fill-opacity="0.4"><g transform="translate(217.073842, 234.128145)"><g><path d="M 4.09375 0 L 1.03125 0 L 1.03125 -10.625 C 1.570312 -10.738281 2.128906 -10.828125 2.703125 -10.890625 C 3.273438 -10.953125 3.8125 -10.992188 4.3125 -11.015625 C 4.8125 -11.035156 5.226562 -11.046875 5.5625 -11.046875 L 7.71875 -11.046875 L 7.71875 -8.234375 L 6.0625 -8.234375 C 5.90625 -8.234375 5.6875 -8.222656 5.40625 -8.203125 C 5.125 -8.179688 4.859375 -8.160156 4.609375 -8.140625 C 4.359375 -8.117188 4.1875 -8.097656 4.09375 -8.078125 Z M 4.09375 0 "/></g></g></g><g fill="#ffffff" fill-opacity="0.4"><g transform="translate(224.784921, 234.128145)"><g><path d="M 6.90625 0.3125 C 5.707031 0.3125 4.644531 0.0546875 3.71875 -0.453125 C 2.800781 -0.972656 2.082031 -1.675781 1.5625 -2.5625 C 1.039062 -3.457031 0.78125 -4.46875 0.78125 -5.59375 L 0.78125 -5.609375 C 0.78125 -6.742188 1.039062 -7.753906 1.5625 -8.640625 C 2.082031 -9.523438 2.800781 -10.21875 3.71875 -10.71875 C 4.632812 -11.226562 5.695312 -11.484375 6.90625 -11.484375 C 8.113281 -11.484375 9.175781 -11.226562 10.09375 -10.71875 C 11.019531 -10.21875 11.742188 -9.523438 12.265625 -8.640625 C 12.785156 -7.753906 13.046875 -6.742188 13.046875 -5.609375 L 13.046875 -5.59375 C 13.046875 -4.46875 12.785156 -3.457031 12.265625 -2.5625 C 11.742188 -1.675781 11.019531 -0.972656 10.09375 -0.453125 C 9.175781 0.0546875 8.113281 0.3125 6.90625 0.3125 Z M 6.90625 -2.421875 C 7.519531 -2.421875 8.050781 -2.5625 8.5 -2.84375 C 8.957031 -3.125 9.316406 -3.503906 9.578125 -3.984375 C 9.835938 -4.472656 9.96875 -5.007812 9.96875 -5.59375 L 9.96875 -5.640625 C 9.96875 -6.222656 9.84375 -6.75 9.59375 -7.21875 C 9.34375 -7.6875 8.988281 -8.054688 8.53125 -8.328125 C 8.070312 -8.609375 7.53125 -8.75 6.90625 -8.75 C 6.289062 -8.75 5.753906 -8.609375 5.296875 -8.328125 C 4.835938 -8.054688 4.476562 -7.6875 4.21875 -7.21875 C 3.96875 -6.75 3.84375 -6.222656 3.84375 -5.640625 L 3.84375 -5.59375 C 3.84375 -5.007812 3.96875 -4.472656 4.21875 -3.984375 C 4.476562 -3.503906 4.835938 -3.125 5.296875 -2.84375 C 5.765625 -2.5625 6.300781 -2.421875 6.90625 -2.421875 Z M 6.90625 -2.421875 "/></g></g></g><g fill="#ffffff" fill-opacity="0.4"><g transform="translate(237.86132, 234.128145)"><g><path d="M 4.09375 0 L 1.03125 0 L 1.03125 -10.90625 C 1.65625 -11.019531 2.289062 -11.117188 2.9375 -11.203125 C 3.582031 -11.285156 4.1875 -11.351562 4.75 -11.40625 C 5.320312 -11.457031 5.796875 -11.484375 6.171875 -11.484375 C 7.085938 -11.484375 7.929688 -11.359375 8.703125 -11.109375 C 9.484375 -10.859375 10.101562 -10.421875 10.5625 -9.796875 C 11.03125 -9.171875 11.265625 -8.3125 11.265625 -7.21875 L 11.265625 0 L 8.234375 0 L 8.234375 -6.84375 C 8.234375 -7.539062 8.046875 -8.03125 7.671875 -8.3125 C 7.296875 -8.601562 6.753906 -8.75 6.046875 -8.75 C 5.773438 -8.75 5.472656 -8.734375 5.140625 -8.703125 C 4.804688 -8.671875 4.457031 -8.625 4.09375 -8.5625 Z M 4.09375 0 "/></g></g></g><g fill="#ffffff" fill-opacity="0.4"><g transform="translate(249.456971, 234.128145)"><g><path d="M 9.484375 0 L 5.984375 0 C 4.660156 0 3.726562 -0.296875 3.1875 -0.890625 C 2.65625 -1.484375 2.390625 -2.382812 2.390625 -3.59375 L 2.390625 -8.234375 L 0.4375 -8.234375 L 0.4375 -11.046875 L 2.390625 -11.046875 L 2.390625 -14.421875 L 5.4375 -14.421875 L 5.4375 -11.046875 L 9.46875 -11.046875 L 9.46875 -8.234375 L 5.4375 -8.234375 L 5.4375 -4.5625 C 5.4375 -3.945312 5.585938 -3.503906 5.890625 -3.234375 C 6.203125 -2.960938 6.6875 -2.828125 7.34375 -2.828125 L 9.484375 -2.828125 Z M 9.484375 0 "/></g></g></g><g fill="#ffffff" fill-opacity="0.4"><g transform="translate(259.014189, 234.128145)"><g><path d="M 8.359375 -4.234375 L 0.765625 -4.234375 L 0.765625 -6.90625 L 8.359375 -6.90625 Z M 8.359375 -4.234375 "/></g></g></g><g fill="#ffffff" fill-opacity="0.4"><g transform="translate(267.436805, 234.128145)"><g><path d="M 12.21875 -5.15625 L 12.21875 -4.890625 L 3.9375 -4.890625 C 4.09375 -4.179688 4.4375 -3.585938 4.96875 -3.109375 C 5.5 -2.628906 6.179688 -2.390625 7.015625 -2.390625 C 7.703125 -2.390625 8.328125 -2.492188 8.890625 -2.703125 C 9.460938 -2.910156 9.945312 -3.15625 10.34375 -3.4375 L 11.671875 -1.078125 C 11.117188 -0.734375 10.453125 -0.421875 9.671875 -0.140625 C 8.890625 0.140625 7.960938 0.28125 6.890625 0.28125 C 5.660156 0.28125 4.582031 0.0351562 3.65625 -0.453125 C 2.738281 -0.941406 2.023438 -1.628906 1.515625 -2.515625 C 1.015625 -3.398438 0.765625 -4.425781 0.765625 -5.59375 L 0.765625 -5.609375 C 0.765625 -6.765625 1 -7.78125 1.46875 -8.65625 C 1.945312 -9.539062 2.613281 -10.234375 3.46875 -10.734375 C 4.332031 -11.234375 5.347656 -11.484375 6.515625 -11.484375 C 7.703125 -11.484375 8.71875 -11.226562 9.5625 -10.71875 C 10.414062 -10.21875 11.070312 -9.492188 11.53125 -8.546875 C 11.988281 -7.609375 12.21875 -6.476562 12.21875 -5.15625 Z M 6.5 -9 C 5.832031 -9 5.273438 -8.785156 4.828125 -8.359375 C 4.390625 -7.941406 4.101562 -7.410156 3.96875 -6.765625 L 9.09375 -6.765625 C 8.976562 -7.410156 8.703125 -7.941406 8.265625 -8.359375 C 7.828125 -8.785156 7.238281 -9 6.5 -9 Z M 6.5 -9 "/></g></g></g><g fill="#ffffff" fill-opacity="0.4"><g transform="translate(279.705529, 234.128145)"><g><path d="M 4.09375 0 L 1.03125 0 L 1.03125 -10.90625 C 1.65625 -11.019531 2.289062 -11.117188 2.9375 -11.203125 C 3.582031 -11.285156 4.1875 -11.351562 4.75 -11.40625 C 5.320312 -11.457031 5.796875 -11.484375 6.171875 -11.484375 C 7.085938 -11.484375 7.929688 -11.359375 8.703125 -11.109375 C 9.484375 -10.859375 10.101562 -10.421875 10.5625 -9.796875 C 11.03125 -9.171875 11.265625 -8.3125 11.265625 -7.21875 L 11.265625 0 L 8.234375 0 L 8.234375 -6.84375 C 8.234375 -7.539062 8.046875 -8.03125 7.671875 -8.3125 C 7.296875 -8.601562 6.753906 -8.75 6.046875 -8.75 C 5.773438 -8.75 5.472656 -8.734375 5.140625 -8.703125 C 4.804688 -8.671875 4.457031 -8.625 4.09375 -8.5625 Z M 4.09375 0 "/></g></g></g><g fill="#ffffff" fill-opacity="0.4"><g transform="translate(291.30118, 234.128145)"><g><path d="M 6.90625 0.3125 C 5.644531 0.3125 4.554688 0.0546875 3.640625 -0.453125 C 2.722656 -0.972656 2.015625 -1.675781 1.515625 -2.5625 C 1.023438 -3.445312 0.78125 -4.453125 0.78125 -5.578125 L 0.78125 -5.609375 C 0.78125 -6.742188 1.019531 -7.753906 1.5 -8.640625 C 1.976562 -9.523438 2.664062 -10.21875 3.5625 -10.71875 C 4.457031 -11.226562 5.535156 -11.484375 6.796875 -11.484375 C 7.148438 -11.484375 7.503906 -11.453125 7.859375 -11.390625 C 8.210938 -11.335938 8.554688 -11.269531 8.890625 -11.1875 L 8.890625 -15.59375 L 11.921875 -15.59375 L 11.921875 -0.765625 C 11.140625 -0.378906 10.363281 -0.101562 9.59375 0.0625 C 8.820312 0.226562 7.925781 0.3125 6.90625 0.3125 Z M 6.90625 -2.421875 C 7.28125 -2.421875 7.628906 -2.441406 7.953125 -2.484375 C 8.273438 -2.535156 8.585938 -2.597656 8.890625 -2.671875 L 8.890625 -8.46875 C 8.585938 -8.53125 8.265625 -8.59375 7.921875 -8.65625 C 7.578125 -8.71875 7.238281 -8.75 6.90625 -8.75 C 5.90625 -8.75 5.144531 -8.445312 4.625 -7.84375 C 4.101562 -7.238281 3.84375 -6.492188 3.84375 -5.609375 L 3.84375 -5.578125 C 3.84375 -4.691406 4.101562 -3.941406 4.625 -3.328125 C 5.144531 -2.722656 5.90625 -2.421875 6.90625 -2.421875 Z M 6.90625 -2.421875 "/></g></g></g><g fill="#03fa6e" fill-opacity="1"><g transform="translate(206.386126, 232.920717)"><g><path d="M 5.421875 0 L 2.359375 0 L 2.359375 -8.265625 L 0.4375 -8.265625 L 0.4375 -11.046875 L 2.359375 -11.046875 L 2.359375 -12.078125 C 2.359375 -13.253906 2.75 -14.132812 3.53125 -14.71875 C 4.320312 -15.300781 5.46875 -15.59375 6.96875 -15.59375 L 9.484375 -15.59375 L 9.484375 -13.375 L 7.265625 -13.375 C 6.597656 -13.375 6.125 -13.242188 5.84375 -12.984375 C 5.5625 -12.722656 5.421875 -12.375 5.421875 -11.9375 L 5.421875 -11.046875 L 9.46875 -11.046875 L 9.46875 -8.265625 L 5.421875 -8.265625 Z M 5.421875 0 "/></g></g></g><g fill="#03fa6e" fill-opacity="1"><g transform="translate(215.866416, 232.920717)"><g><path d="M 4.09375 0 L 1.03125 0 L 1.03125 -10.625 C 1.570312 -10.738281 2.128906 -10.828125 2.703125 -10.890625 C 3.273438 -10.953125 3.8125 -10.992188 4.3125 -11.015625 C 4.8125 -11.035156 5.226562 -11.046875 5.5625 -11.046875 L 7.71875 -11.046875 L 7.71875 -8.234375 L 6.0625 -8.234375 C 5.90625 -8.234375 5.6875 -8.222656 5.40625 -8.203125 C 5.125 -8.179688 4.859375 -8.160156 4.609375 -8.140625 C 4.359375 -8.117188 4.1875 -8.097656 4.09375 -8.078125 Z M 4.09375 0 "/></g></g></g><g fill="#03fa6e" fill-opacity="1"><g transform="translate(223.577494, 232.920717)"><g><path d="M 6.90625 0.3125 C 5.707031 0.3125 4.644531 0.0546875 3.71875 -0.453125 C 2.800781 -0.972656 2.082031 -1.675781 1.5625 -2.5625 C 1.039062 -3.457031 0.78125 -4.46875 0.78125 -5.59375 L 0.78125 -5.609375 C 0.78125 -6.742188 1.039062 -7.753906 1.5625 -8.640625 C 2.082031 -9.523438 2.800781 -10.21875 3.71875 -10.71875 C 4.632812 -11.226562 5.695312 -11.484375 6.90625 -11.484375 C 8.113281 -11.484375 9.175781 -11.226562 10.09375 -10.71875 C 11.019531 -10.21875 11.742188 -9.523438 12.265625 -8.640625 C 12.785156 -7.753906 13.046875 -6.742188 13.046875 -5.609375 L 13.046875 -5.59375 C 13.046875 -4.46875 12.785156 -3.457031 12.265625 -2.5625 C 11.742188 -1.675781 11.019531 -0.972656 10.09375 -0.453125 C 9.175781 0.0546875 8.113281 0.3125 6.90625 0.3125 Z M 6.90625 -2.421875 C 7.519531 -2.421875 8.050781 -2.5625 8.5 -2.84375 C 8.957031 -3.125 9.316406 -3.503906 9.578125 -3.984375 C 9.835938 -4.472656 9.96875 -5.007812 9.96875 -5.59375 L 9.96875 -5.640625 C 9.96875 -6.222656 9.84375 -6.75 9.59375 -7.21875 C 9.34375 -7.6875 8.988281 -8.054688 8.53125 -8.328125 C 8.070312 -8.609375 7.53125 -8.75 6.90625 -8.75 C 6.289062 -8.75 5.753906 -8.609375 5.296875 -8.328125 C 4.835938 -8.054688 4.476562 -7.6875 4.21875 -7.21875 C 3.96875 -6.75 3.84375 -6.222656 3.84375 -5.640625 L 3.84375 -5.59375 C 3.84375 -5.007812 3.96875 -4.472656 4.21875 -3.984375 C 4.476562 -3.503906 4.835938 -3.125 5.296875 -2.84375 C 5.765625 -2.5625 6.300781 -2.421875 6.90625 -2.421875 Z M 6.90625 -2.421875 "/></g></g></g><g fill="#03fa6e" fill-opacity="1"><g transform="translate(236.653893, 232.920717)"><g><path d="M 4.09375 0 L 1.03125 0 L 1.03125 -10.90625 C 1.65625 -11.019531 2.289062 -11.117188 2.9375 -11.203125 C 3.582031 -11.285156 4.1875 -11.351562 4.75 -11.40625 C 5.320312 -11.457031 5.796875 -11.484375 6.171875 -11.484375 C 7.085938 -11.484375 7.929688 -11.359375 8.703125 -11.109375 C 9.484375 -10.859375 10.101562 -10.421875 10.5625 -9.796875 C 11.03125 -9.171875 11.265625 -8.3125 11.265625 -7.21875 L 11.265625 0 L 8.234375 0 L 8.234375 -6.84375 C 8.234375 -7.539062 8.046875 -8.03125 7.671875 -8.3125 C 7.296875 -8.601562 6.753906 -8.75 6.046875 -8.75 C 5.773438 -8.75 5.472656 -8.734375 5.140625 -8.703125 C 4.804688 -8.671875 4.457031 -8.625 4.09375 -8.5625 Z M 4.09375 0 "/></g></g></g><g fill="#03fa6e" fill-opacity="1"><g transform="translate(248.249544, 232.920717)"><g><path d="M 9.484375 0 L 5.984375 0 C 4.660156 0 3.726562 -0.296875 3.1875 -0.890625 C 2.65625 -1.484375 2.390625 -2.382812 2.390625 -3.59375 L 2.390625 -8.234375 L 0.4375 -8.234375 L 0.4375 -11.046875 L 2.390625 -11.046875 L 2.390625 -14.421875 L 5.4375 -14.421875 L 5.4375 -11.046875 L 9.46875 -11.046875 L 9.46875 -8.234375 L 5.4375 -8.234375 L 5.4375 -4.5625 C 5.4375 -3.945312 5.585938 -3.503906 5.890625 -3.234375 C 6.203125 -2.960938 6.6875 -2.828125 7.34375 -2.828125 L 9.484375 -2.828125 Z M 9.484375 0 "/></g></g></g><g fill="#03fa6e" fill-opacity="1"><g transform="translate(257.806762, 232.920717)"><g><path d="M 8.359375 -4.234375 L 0.765625 -4.234375 L 0.765625 -6.90625 L 8.359375 -6.90625 Z M 8.359375 -4.234375 "/></g></g></g><g fill="#03fa6e" fill-opacity="1"><g transform="translate(266.229378, 232.920717)"><g><path d="M 12.21875 -5.15625 L 12.21875 -4.890625 L 3.9375 -4.890625 C 4.09375 -4.179688 4.4375 -3.585938 4.96875 -3.109375 C 5.5 -2.628906 6.179688 -2.390625 7.015625 -2.390625 C 7.703125 -2.390625 8.328125 -2.492188 8.890625 -2.703125 C 9.460938 -2.910156 9.945312 -3.15625 10.34375 -3.4375 L 11.671875 -1.078125 C 11.117188 -0.734375 10.453125 -0.421875 9.671875 -0.140625 C 8.890625 0.140625 7.960938 0.28125 6.890625 0.28125 C 5.660156 0.28125 4.582031 0.0351562 3.65625 -0.453125 C 2.738281 -0.941406 2.023438 -1.628906 1.515625 -2.515625 C 1.015625 -3.398438 0.765625 -4.425781 0.765625 -5.59375 L 0.765625 -5.609375 C 0.765625 -6.765625 1 -7.78125 1.46875 -8.65625 C 1.945312 -9.539062 2.613281 -10.234375 3.46875 -10.734375 C 4.332031 -11.234375 5.347656 -11.484375 6.515625 -11.484375 C 7.703125 -11.484375 8.71875 -11.226562 9.5625 -10.71875 C 10.414062 -10.21875 11.070312 -9.492188 11.53125 -8.546875 C 11.988281 -7.609375 12.21875 -6.476562 12.21875 -5.15625 Z M 6.5 -9 C 5.832031 -9 5.273438 -8.785156 4.828125 -8.359375 C 4.390625 -7.941406 4.101562 -7.410156 3.96875 -6.765625 L 9.09375 -6.765625 C 8.976562 -7.410156 8.703125 -7.941406 8.265625 -8.359375 C 7.828125 -8.785156 7.238281 -9 6.5 -9 Z M 6.5 -9 "/></g></g></g><g fill="#03fa6e" fill-opacity="1"><g transform="translate(278.498102, 232.920717)"><g><path d="M 4.09375 0 L 1.03125 0 L 1.03125 -10.90625 C 1.65625 -11.019531 2.289062 -11.117188 2.9375 -11.203125 C 3.582031 -11.285156 4.1875 -11.351562 4.75 -11.40625 C 5.320312 -11.457031 5.796875 -11.484375 6.171875 -11.484375 C 7.085938 -11.484375 7.929688 -11.359375 8.703125 -11.109375 C 9.484375 -10.859375 10.101562 -10.421875 10.5625 -9.796875 C 11.03125 -9.171875 11.265625 -8.3125 11.265625 -7.21875 L 11.265625 0 L 8.234375 0 L 8.234375 -6.84375 C 8.234375 -7.539062 8.046875 -8.03125 7.671875 -8.3125 C 7.296875 -8.601562 6.753906 -8.75 6.046875 -8.75 C 5.773438 -8.75 5.472656 -8.734375 5.140625 -8.703125 C 4.804688 -8.671875 4.457031 -8.625 4.09375 -8.5625 Z M 4.09375 0 "/></g></g></g><g fill="#03fa6e" fill-opacity="1"><g transform="translate(290.093753, 232.920717)"><g><path d="M 6.90625 0.3125 C 5.644531 0.3125 4.554688 0.0546875 3.640625 -0.453125 C 2.722656 -0.972656 2.015625 -1.675781 1.515625 -2.5625 C 1.023438 -3.445312 0.78125 -4.453125 0.78125 -5.578125 L 0.78125 -5.609375 C 0.78125 -6.742188 1.019531 -7.753906 1.5 -8.640625 C 1.976562 -9.523438 2.664062 -10.21875 3.5625 -10.71875 C 4.457031 -11.226562 5.535156 -11.484375 6.796875 -11.484375 C 7.148438 -11.484375 7.503906 -11.453125 7.859375 -11.390625 C 8.210938 -11.335938 8.554688 -11.269531 8.890625 -11.1875 L 8.890625 -15.59375 L 11.921875 -15.59375 L 11.921875 -0.765625 C 11.140625 -0.378906 10.363281 -0.101562 9.59375 0.0625 C 8.820312 0.226562 7.925781 0.3125 6.90625 0.3125 Z M 6.90625 -2.421875 C 7.28125 -2.421875 7.628906 -2.441406 7.953125 -2.484375 C 8.273438 -2.535156 8.585938 -2.597656 8.890625 -2.671875 L 8.890625 -8.46875 C 8.585938 -8.53125 8.265625 -8.59375 7.921875 -8.65625 C 7.578125 -8.71875 7.238281 -8.75 6.90625 -8.75 C 5.90625 -8.75 5.144531 -8.445312 4.625 -7.84375 C 4.101562 -7.238281 3.84375 -6.492188 3.84375 -5.609375 L 3.84375 -5.578125 C 3.84375 -4.691406 4.101562 -3.941406 4.625 -3.328125 C 5.144531 -2.722656 5.90625 -2.421875 6.90625 -2.421875 Z M 6.90625 -2.421875 "/></g></g></g><g fill="#ff00ff" fill-opacity="1"><g transform="translate(38.704272, 213.924567)"><g><path d="M 10.234375 -18.75 L 10.234375 -14.296875 L 12.84375 -14.296875 C 13.445312 -14.296875 13.851562 -14.453125 14.0625 -14.765625 C 14.269531 -15.078125 14.375 -15.46875 14.375 -15.9375 L 14.375 -17.109375 C 14.375 -17.578125 14.269531 -17.96875 14.0625 -18.28125 C 13.851562 -18.59375 13.445312 -18.75 12.84375 -18.75 Z M 8.984375 0 L 3.640625 0 C 3.203125 0 2.882812 -0.0976562 2.6875 -0.296875 C 2.488281 -0.492188 2.390625 -0.8125 2.390625 -1.25 L 2.390625 -23.75 C 2.390625 -24.1875 2.488281 -24.503906 2.6875 -24.703125 C 2.882812 -24.898438 3.203125 -25 3.640625 -25 L 15.203125 -25 C 17.796875 -25 19.582031 -24.457031 20.5625 -23.375 C 21.550781 -22.300781 22.046875 -20.910156 22.046875 -19.203125 L 22.046875 -17.609375 C 22.046875 -16.628906 21.898438 -15.796875 21.609375 -15.109375 C 21.316406 -14.429688 20.816406 -13.941406 20.109375 -13.640625 C 21.359375 -13.503906 22.367188 -12.992188 23.140625 -12.109375 C 23.910156 -11.234375 24.296875 -10.066406 24.296875 -8.609375 L 24.296875 -1.25 C 24.296875 -0.8125 24.195312 -0.492188 24 -0.296875 C 23.8125 -0.0976562 23.492188 0 23.046875 0 L 17.671875 0 C 17.234375 0 16.914062 -0.0976562 16.71875 -0.296875 C 16.519531 -0.492188 16.421875 -0.8125 16.421875 -1.25 L 16.421875 -6.5625 C 16.421875 -7.070312 16.320312 -7.445312 16.125 -7.6875 C 15.925781 -7.9375 15.585938 -8.0625 15.109375 -8.0625 L 10.234375 -8.0625 L 10.234375 -1.25 C 10.234375 -0.8125 10.132812 -0.492188 9.9375 -0.296875 C 9.75 -0.0976562 9.429688 0 8.984375 0 Z M 8.984375 0 "/></g></g></g><g fill="#ff00ff" fill-opacity="1"><g transform="translate(64.503178, 213.924567)"><g><path d="M 11.453125 -17.703125 L 9.828125 -12.421875 L 15.28125 -12.421875 L 13.640625 -17.703125 C 13.546875 -17.910156 13.445312 -18.0625 13.34375 -18.15625 C 13.238281 -18.25 13.117188 -18.296875 12.984375 -18.296875 L 12.109375 -18.296875 C 11.972656 -18.296875 11.851562 -18.25 11.75 -18.15625 C 11.644531 -18.0625 11.546875 -17.910156 11.453125 -17.703125 Z M 9.484375 -1.25 C 9.484375 -0.8125 9.382812 -0.492188 9.1875 -0.296875 C 8.988281 -0.0976562 8.671875 0 8.234375 0 L 3.125 0 C 2.6875 0 2.367188 -0.0976562 2.171875 -0.296875 C 1.972656 -0.492188 1.875 -0.8125 1.875 -1.25 L 1.875 -10.421875 C 1.875 -11.109375 1.984375 -11.90625 2.203125 -12.8125 C 2.421875 -13.71875 2.765625 -14.769531 3.234375 -15.96875 L 6.25 -23.859375 C 6.382812 -24.242188 6.597656 -24.53125 6.890625 -24.71875 C 7.179688 -24.90625 7.554688 -25 8.015625 -25 L 17.359375 -25 C 17.796875 -25 18.160156 -24.90625 18.453125 -24.71875 C 18.742188 -24.53125 18.957031 -24.242188 19.09375 -23.859375 L 22.109375 -15.96875 C 22.578125 -14.769531 22.921875 -13.71875 23.140625 -12.8125 C 23.359375 -11.90625 23.46875 -11.109375 23.46875 -10.421875 L 23.46875 -1.25 C 23.46875 -0.8125 23.367188 -0.492188 23.171875 -0.296875 C 22.972656 -0.0976562 22.65625 0 22.21875 0 L 16.984375 0 C 16.515625 0 16.171875 -0.0976562 15.953125 -0.296875 C 15.734375 -0.492188 15.625 -0.8125 15.625 -1.25 L 15.625 -6.109375 L 9.484375 -6.109375 Z M 9.484375 -1.25 "/></g></g></g><g fill="#ff00ff" fill-opacity="1"><g transform="translate(89.850696, 213.924567)"><g><path d="M 9.03125 0 L 3.640625 0 C 3.203125 0 2.882812 -0.0976562 2.6875 -0.296875 C 2.488281 -0.492188 2.390625 -0.8125 2.390625 -1.25 L 2.390625 -23.75 C 2.390625 -24.1875 2.488281 -24.503906 2.6875 -24.703125 C 2.882812 -24.898438 3.203125 -25 3.640625 -25 L 19.125 -25 C 19.570312 -25 19.890625 -24.898438 20.078125 -24.703125 C 20.273438 -24.503906 20.375 -24.1875 20.375 -23.75 L 20.375 -19.609375 C 20.375 -19.171875 20.273438 -18.851562 20.078125 -18.65625 C 19.890625 -18.457031 19.570312 -18.359375 19.125 -18.359375 L 10.28125 -18.359375 L 10.28125 -14.75 L 16.3125 -14.75 C 16.757812 -14.75 17.078125 -14.648438 17.265625 -14.453125 C 17.460938 -14.265625 17.5625 -13.945312 17.5625 -13.5 L 17.5625 -9.34375 C 17.5625 -8.90625 17.460938 -8.585938 17.265625 -8.390625 C 17.078125 -8.191406 16.757812 -8.09375 16.3125 -8.09375 L 10.28125 -8.09375 L 10.28125 -1.25 C 10.28125 -0.8125 10.179688 -0.492188 9.984375 -0.296875 C 9.785156 -0.0976562 9.46875 0 9.03125 0 Z M 9.03125 0 "/></g></g></g><g fill="#ff00ff" fill-opacity="1"><g transform="translate(111.309282, 213.924567)"><g><path d="M 11.453125 -17.703125 L 9.828125 -12.421875 L 15.28125 -12.421875 L 13.640625 -17.703125 C 13.546875 -17.910156 13.445312 -18.0625 13.34375 -18.15625 C 13.238281 -18.25 13.117188 -18.296875 12.984375 -18.296875 L 12.109375 -18.296875 C 11.972656 -18.296875 11.851562 -18.25 11.75 -18.15625 C 11.644531 -18.0625 11.546875 -17.910156 11.453125 -17.703125 Z M 9.484375 -1.25 C 9.484375 -0.8125 9.382812 -0.492188 9.1875 -0.296875 C 8.988281 -0.0976562 8.671875 0 8.234375 0 L 3.125 0 C 2.6875 0 2.367188 -0.0976562 2.171875 -0.296875 C 1.972656 -0.492188 1.875 -0.8125 1.875 -1.25 L 1.875 -10.421875 C 1.875 -11.109375 1.984375 -11.90625 2.203125 -12.8125 C 2.421875 -13.71875 2.765625 -14.769531 3.234375 -15.96875 L 6.25 -23.859375 C 6.382812 -24.242188 6.597656 -24.53125 6.890625 -24.71875 C 7.179688 -24.90625 7.554688 -25 8.015625 -25 L 17.359375 -25 C 17.796875 -25 18.160156 -24.90625 18.453125 -24.71875 C 18.742188 -24.53125 18.957031 -24.242188 19.09375 -23.859375 L 22.109375 -15.96875 C 22.578125 -14.769531 22.921875 -13.71875 23.140625 -12.8125 C 23.359375 -11.90625 23.46875 -11.109375 23.46875 -10.421875 L 23.46875 -1.25 C 23.46875 -0.8125 23.367188 -0.492188 23.171875 -0.296875 C 22.972656 -0.0976562 22.65625 0 22.21875 0 L 16.984375 0 C 16.515625 0 16.171875 -0.0976562 15.953125 -0.296875 C 15.734375 -0.492188 15.625 -0.8125 15.625 -1.25 L 15.625 -6.109375 L 9.484375 -6.109375 Z M 9.484375 -1.25 "/></g></g></g><g fill="#ff00ff" fill-opacity="1"><g transform="translate(136.656799, 213.924567)"><g><path d="M 19.75 0 L 3.640625 0 C 3.203125 0 2.882812 -0.0976562 2.6875 -0.296875 C 2.488281 -0.492188 2.390625 -0.8125 2.390625 -1.25 L 2.390625 -23.75 C 2.390625 -24.1875 2.488281 -24.503906 2.6875 -24.703125 C 2.882812 -24.898438 3.203125 -25 3.640625 -25 L 19.75 -25 C 20.195312 -25 20.515625 -24.898438 20.703125 -24.703125 C 20.898438 -24.503906 21 -24.1875 21 -23.75 L 21 -19.6875 C 21 -19.25 20.898438 -18.929688 20.703125 -18.734375 C 20.515625 -18.535156 20.195312 -18.4375 19.75 -18.4375 L 10.171875 -18.4375 L 10.171875 -15.765625 L 16.9375 -15.765625 C 17.382812 -15.765625 17.703125 -15.664062 17.890625 -15.46875 C 18.085938 -15.269531 18.1875 -14.953125 18.1875 -14.515625 L 18.1875 -10.796875 C 18.1875 -10.359375 18.085938 -10.039062 17.890625 -9.84375 C 17.703125 -9.644531 17.382812 -9.546875 16.9375 -9.546875 L 10.171875 -9.546875 L 10.171875 -6.5625 L 19.75 -6.5625 C 20.195312 -6.5625 20.515625 -6.460938 20.703125 -6.265625 C 20.898438 -6.066406 21 -5.75 21 -5.3125 L 21 -1.25 C 21 -0.8125 20.898438 -0.492188 20.703125 -0.296875 C 20.515625 -0.0976562 20.195312 0 19.75 0 Z M 19.75 0 "/></g></g></g><g fill="#ff00ff" fill-opacity="1"><g transform="translate(159.3654, 213.924567)"><g><path d="M 21.3125 0 L 3.640625 0 C 3.203125 0 2.882812 -0.0976562 2.6875 -0.296875 C 2.488281 -0.492188 2.390625 -0.8125 2.390625 -1.25 L 2.390625 -23.75 C 2.390625 -24.1875 2.488281 -24.503906 2.6875 -24.703125 C 2.882812 -24.898438 3.203125 -25 3.640625 -25 L 9.03125 -25 C 9.46875 -25 9.785156 -24.898438 9.984375 -24.703125 C 10.179688 -24.503906 10.28125 -24.1875 10.28125 -23.75 L 10.28125 -6.5625 L 15.03125 -6.5625 L 15.03125 -12.1875 C 15.03125 -12.625 15.128906 -12.941406 15.328125 -13.140625 C 15.523438 -13.335938 15.84375 -13.4375 16.28125 -13.4375 L 21.3125 -13.4375 C 21.757812 -13.4375 22.078125 -13.335938 22.265625 -13.140625 C 22.460938 -12.941406 22.5625 -12.625 22.5625 -12.1875 L 22.5625 -1.25 C 22.5625 -0.8125 22.460938 -0.492188 22.265625 -0.296875 C 22.078125 -0.0976562 21.757812 0 21.3125 0 Z M 21.3125 0 "/></g></g></g><g fill="#ff00ff" fill-opacity="1"><g transform="translate(183.497624, 213.924567)"><g/></g></g><g fill="#ff00ff" fill-opacity="1"><g transform="translate(191.310219, 213.924567)"><g><path d="M 21.484375 0 L 10.546875 0 C 7.660156 0 5.515625 -0.578125 4.109375 -1.734375 C 2.710938 -2.890625 2.015625 -4.671875 2.015625 -7.078125 L 2.015625 -17.921875 C 2.015625 -20.328125 2.710938 -22.109375 4.109375 -23.265625 C 5.515625 -24.421875 7.660156 -25 10.546875 -25 L 19.234375 -25 C 19.671875 -25 19.988281 -24.898438 20.1875 -24.703125 C 20.382812 -24.503906 20.484375 -24.1875 20.484375 -23.75 L 20.484375 -19.546875 C 20.484375 -19.109375 20.382812 -18.789062 20.1875 -18.59375 C 19.988281 -18.394531 19.671875 -18.296875 19.234375 -18.296875 L 12.015625 -18.296875 C 11.296875 -18.296875 10.757812 -18.148438 10.40625 -17.859375 C 10.0625 -17.566406 9.890625 -17.132812 9.890625 -16.5625 L 9.890625 -8.265625 C 9.890625 -7.679688 10.019531 -7.25 10.28125 -6.96875 C 10.550781 -6.695312 10.953125 -6.5625 11.484375 -6.5625 L 14.859375 -6.5625 L 14.859375 -11.984375 C 14.859375 -12.421875 14.957031 -12.738281 15.15625 -12.9375 C 15.351562 -13.132812 15.671875 -13.234375 16.109375 -13.234375 L 21.484375 -13.234375 C 21.929688 -13.234375 22.25 -13.132812 22.4375 -12.9375 C 22.632812 -12.738281 22.734375 -12.421875 22.734375 -11.984375 L 22.734375 -1.25 C 22.734375 -0.8125 22.632812 -0.492188 22.4375 -0.296875 C 22.25 -0.0976562 21.929688 0 21.484375 0 Z M 21.484375 0 "/></g></g></g><g fill="#ff00ff" fill-opacity="1"><g transform="translate(215.893831, 213.924567)"><g><path d="M 11.453125 -17.703125 L 9.828125 -12.421875 L 15.28125 -12.421875 L 13.640625 -17.703125 C 13.546875 -17.910156 13.445312 -18.0625 13.34375 -18.15625 C 13.238281 -18.25 13.117188 -18.296875 12.984375 -18.296875 L 12.109375 -18.296875 C 11.972656 -18.296875 11.851562 -18.25 11.75 -18.15625 C 11.644531 -18.0625 11.546875 -17.910156 11.453125 -17.703125 Z M 9.484375 -1.25 C 9.484375 -0.8125 9.382812 -0.492188 9.1875 -0.296875 C 8.988281 -0.0976562 8.671875 0 8.234375 0 L 3.125 0 C 2.6875 0 2.367188 -0.0976562 2.171875 -0.296875 C 1.972656 -0.492188 1.875 -0.8125 1.875 -1.25 L 1.875 -10.421875 C 1.875 -11.109375 1.984375 -11.90625 2.203125 -12.8125 C 2.421875 -13.71875 2.765625 -14.769531 3.234375 -15.96875 L 6.25 -23.859375 C 6.382812 -24.242188 6.597656 -24.53125 6.890625 -24.71875 C 7.179688 -24.90625 7.554688 -25 8.015625 -25 L 17.359375 -25 C 17.796875 -25 18.160156 -24.90625 18.453125 -24.71875 C 18.742188 -24.53125 18.957031 -24.242188 19.09375 -23.859375 L 22.109375 -15.96875 C 22.578125 -14.769531 22.921875 -13.71875 23.140625 -12.8125 C 23.359375 -11.90625 23.46875 -11.109375 23.46875 -10.421875 L 23.46875 -1.25 C 23.46875 -0.8125 23.367188 -0.492188 23.171875 -0.296875 C 22.972656 -0.0976562 22.65625 0 22.21875 0 L 16.984375 0 C 16.515625 0 16.171875 -0.0976562 15.953125 -0.296875 C 15.734375 -0.492188 15.625 -0.8125 15.625 -1.25 L 15.625 -6.109375 L 9.484375 -6.109375 Z M 9.484375 -1.25 "/></g></g></g><g fill="#ff00ff" fill-opacity="1"><g transform="translate(241.241337, 213.924567)"><g><path d="M 10.234375 -18.75 L 10.234375 -14.296875 L 12.84375 -14.296875 C 13.445312 -14.296875 13.851562 -14.453125 14.0625 -14.765625 C 14.269531 -15.078125 14.375 -15.46875 14.375 -15.9375 L 14.375 -17.109375 C 14.375 -17.578125 14.269531 -17.96875 14.0625 -18.28125 C 13.851562 -18.59375 13.445312 -18.75 12.84375 -18.75 Z M 8.984375 0 L 3.640625 0 C 3.203125 0 2.882812 -0.0976562 2.6875 -0.296875 C 2.488281 -0.492188 2.390625 -0.8125 2.390625 -1.25 L 2.390625 -23.75 C 2.390625 -24.1875 2.488281 -24.503906 2.6875 -24.703125 C 2.882812 -24.898438 3.203125 -25 3.640625 -25 L 15.203125 -25 C 17.796875 -25 19.582031 -24.457031 20.5625 -23.375 C 21.550781 -22.300781 22.046875 -20.910156 22.046875 -19.203125 L 22.046875 -17.609375 C 22.046875 -16.628906 21.898438 -15.796875 21.609375 -15.109375 C 21.316406 -14.429688 20.816406 -13.941406 20.109375 -13.640625 C 21.359375 -13.503906 22.367188 -12.992188 23.140625 -12.109375 C 23.910156 -11.234375 24.296875 -10.066406 24.296875 -8.609375 L 24.296875 -1.25 C 24.296875 -0.8125 24.195312 -0.492188 24 -0.296875 C 23.8125 -0.0976562 23.492188 0 23.046875 0 L 17.671875 0 C 17.234375 0 16.914062 -0.0976562 16.71875 -0.296875 C 16.519531 -0.492188 16.421875 -0.8125 16.421875 -1.25 L 16.421875 -6.5625 C 16.421875 -7.070312 16.320312 -7.445312 16.125 -7.6875 C 15.925781 -7.9375 15.585938 -8.0625 15.109375 -8.0625 L 10.234375 -8.0625 L 10.234375 -1.25 C 10.234375 -0.8125 10.132812 -0.492188 9.9375 -0.296875 C 9.75 -0.0976562 9.429688 0 8.984375 0 Z M 8.984375 0 "/></g></g></g><g fill="#ff00ff" fill-opacity="1"><g transform="translate(267.040255, 213.924567)"><g><path d="M 19.03125 0 L 10.546875 0 C 7.660156 0 5.515625 -0.578125 4.109375 -1.734375 C 2.710938 -2.890625 2.015625 -4.671875 2.015625 -7.078125 L 2.015625 -17.875 C 2.015625 -20.28125 2.710938 -22.066406 4.109375 -23.234375 C 5.515625 -24.410156 7.660156 -25 10.546875 -25 L 19.03125 -25 C 19.46875 -25 19.785156 -24.898438 19.984375 -24.703125 C 20.179688 -24.503906 20.28125 -24.1875 20.28125 -23.75 L 20.28125 -19.546875 C 20.28125 -19.109375 20.179688 -18.789062 19.984375 -18.59375 C 19.785156 -18.394531 19.46875 -18.296875 19.03125 -18.296875 L 12.046875 -18.296875 C 11.328125 -18.296875 10.789062 -18.148438 10.4375 -17.859375 C 10.09375 -17.566406 9.921875 -17.132812 9.921875 -16.5625 L 9.921875 -8.296875 C 9.921875 -7.722656 10.09375 -7.300781 10.4375 -7.03125 C 10.789062 -6.757812 11.328125 -6.625 12.046875 -6.625 L 19.03125 -6.625 C 19.46875 -6.625 19.785156 -6.523438 19.984375 -6.328125 C 20.179688 -6.140625 20.28125 -5.820312 20.28125 -5.375 L 20.28125 -1.25 C 20.28125 -0.8125 20.179688 -0.492188 19.984375 -0.296875 C 19.785156 -0.0976562 19.46875 0 19.03125 0 Z M 19.03125 0 "/></g></g></g><g fill="#ff00ff" fill-opacity="1"><g transform="translate(288.846055, 213.924567)"><g><path d="M 19.75 0 L 3.640625 0 C 3.203125 0 2.882812 -0.0976562 2.6875 -0.296875 C 2.488281 -0.492188 2.390625 -0.8125 2.390625 -1.25 L 2.390625 -23.75 C 2.390625 -24.1875 2.488281 -24.503906 2.6875 -24.703125 C 2.882812 -24.898438 3.203125 -25 3.640625 -25 L 19.75 -25 C 20.195312 -25 20.515625 -24.898438 20.703125 -24.703125 C 20.898438 -24.503906 21 -24.1875 21 -23.75 L 21 -19.6875 C 21 -19.25 20.898438 -18.929688 20.703125 -18.734375 C 20.515625 -18.535156 20.195312 -18.4375 19.75 -18.4375 L 10.171875 -18.4375 L 10.171875 -15.765625 L 16.9375 -15.765625 C 17.382812 -15.765625 17.703125 -15.664062 17.890625 -15.46875 C 18.085938 -15.269531 18.1875 -14.953125 18.1875 -14.515625 L 18.1875 -10.796875 C 18.1875 -10.359375 18.085938 -10.039062 17.890625 -9.84375 C 17.703125 -9.644531 17.382812 -9.546875 16.9375 -9.546875 L 10.171875 -9.546875 L 10.171875 -6.5625 L 19.75 -6.5625 C 20.195312 -6.5625 20.515625 -6.460938 20.703125 -6.265625 C 20.898438 -6.066406 21 -5.75 21 -5.3125 L 21 -1.25 C 21 -0.8125 20.898438 -0.492188 20.703125 -0.296875 C 20.515625 -0.0976562 20.195312 0 19.75 0 Z M 19.75 0 "/></g></g></g><g fill="#ff00ff" fill-opacity="1"><g transform="translate(311.554657, 213.924567)"><g><path d="M 20.0625 0 L 2.84375 0 C 2.40625 0 2.085938 -0.0976562 1.890625 -0.296875 C 1.691406 -0.492188 1.59375 -0.8125 1.59375 -1.25 L 1.59375 -5.90625 C 1.59375 -6.34375 1.660156 -6.726562 1.796875 -7.0625 C 1.941406 -7.394531 2.164062 -7.726562 2.46875 -8.0625 L 10.90625 -18.296875 L 3.46875 -18.296875 C 3.03125 -18.296875 2.710938 -18.394531 2.515625 -18.59375 C 2.316406 -18.789062 2.21875 -19.109375 2.21875 -19.546875 L 2.21875 -23.75 C 2.21875 -24.1875 2.316406 -24.503906 2.515625 -24.703125 C 2.710938 -24.898438 3.03125 -25 3.46875 -25 L 19.4375 -25 C 19.882812 -25 20.203125 -24.898438 20.390625 -24.703125 C 20.585938 -24.503906 20.6875 -24.1875 20.6875 -23.75 L 20.6875 -18.578125 C 20.6875 -18.109375 20.617188 -17.707031 20.484375 -17.375 C 20.347656 -17.039062 20.128906 -16.710938 19.828125 -16.390625 L 11.765625 -6.625 L 20.0625 -6.625 C 20.507812 -6.625 20.828125 -6.523438 21.015625 -6.328125 C 21.210938 -6.140625 21.3125 -5.820312 21.3125 -5.375 L 21.3125 -1.25 C 21.3125 -0.8125 21.210938 -0.492188 21.015625 -0.296875 C 20.828125 -0.0976562 20.507812 0 20.0625 0 Z M 20.0625 0 "/></g></g></g><g fill="#00ffff" fill-opacity="1"><g transform="translate(40.513929, 212.237036)"><g><path d="M 10.234375 -18.75 L 10.234375 -14.296875 L 12.84375 -14.296875 C 13.445312 -14.296875 13.851562 -14.453125 14.0625 -14.765625 C 14.269531 -15.078125 14.375 -15.46875 14.375 -15.9375 L 14.375 -17.109375 C 14.375 -17.578125 14.269531 -17.96875 14.0625 -18.28125 C 13.851562 -18.59375 13.445312 -18.75 12.84375 -18.75 Z M 8.984375 0 L 3.640625 0 C 3.203125 0 2.882812 -0.0976562 2.6875 -0.296875 C 2.488281 -0.492188 2.390625 -0.8125 2.390625 -1.25 L 2.390625 -23.75 C 2.390625 -24.1875 2.488281 -24.503906 2.6875 -24.703125 C 2.882812 -24.898438 3.203125 -25 3.640625 -25 L 15.203125 -25 C 17.796875 -25 19.582031 -24.457031 20.5625 -23.375 C 21.550781 -22.300781 22.046875 -20.910156 22.046875 -19.203125 L 22.046875 -17.609375 C 22.046875 -16.628906 21.898438 -15.796875 21.609375 -15.109375 C 21.316406 -14.429688 20.816406 -13.941406 20.109375 -13.640625 C 21.359375 -13.503906 22.367188 -12.992188 23.140625 -12.109375 C 23.910156 -11.234375 24.296875 -10.066406 24.296875 -8.609375 L 24.296875 -1.25 C 24.296875 -0.8125 24.195312 -0.492188 24 -0.296875 C 23.8125 -0.0976562 23.492188 0 23.046875 0 L 17.671875 0 C 17.234375 0 16.914062 -0.0976562 16.71875 -0.296875 C 16.519531 -0.492188 16.421875 -0.8125 16.421875 -1.25 L 16.421875 -6.5625 C 16.421875 -7.070312 16.320312 -7.445312 16.125 -7.6875 C 15.925781 -7.9375 15.585938 -8.0625 15.109375 -8.0625 L 10.234375 -8.0625 L 10.234375 -1.25 C 10.234375 -0.8125 10.132812 -0.492188 9.9375 -0.296875 C 9.75 -0.0976562 9.429688 0 8.984375 0 Z M 8.984375 0 "/></g></g></g><g fill="#00ffff" fill-opacity="1"><g transform="translate(66.312835, 212.237036)"><g><path d="M 11.453125 -17.703125 L 9.828125 -12.421875 L 15.28125 -12.421875 L 13.640625 -17.703125 C 13.546875 -17.910156 13.445312 -18.0625 13.34375 -18.15625 C 13.238281 -18.25 13.117188 -18.296875 12.984375 -18.296875 L 12.109375 -18.296875 C 11.972656 -18.296875 11.851562 -18.25 11.75 -18.15625 C 11.644531 -18.0625 11.546875 -17.910156 11.453125 -17.703125 Z M 9.484375 -1.25 C 9.484375 -0.8125 9.382812 -0.492188 9.1875 -0.296875 C 8.988281 -0.0976562 8.671875 0 8.234375 0 L 3.125 0 C 2.6875 0 2.367188 -0.0976562 2.171875 -0.296875 C 1.972656 -0.492188 1.875 -0.8125 1.875 -1.25 L 1.875 -10.421875 C 1.875 -11.109375 1.984375 -11.90625 2.203125 -12.8125 C 2.421875 -13.71875 2.765625 -14.769531 3.234375 -15.96875 L 6.25 -23.859375 C 6.382812 -24.242188 6.597656 -24.53125 6.890625 -24.71875 C 7.179688 -24.90625 7.554688 -25 8.015625 -25 L 17.359375 -25 C 17.796875 -25 18.160156 -24.90625 18.453125 -24.71875 C 18.742188 -24.53125 18.957031 -24.242188 19.09375 -23.859375 L 22.109375 -15.96875 C 22.578125 -14.769531 22.921875 -13.71875 23.140625 -12.8125 C 23.359375 -11.90625 23.46875 -11.109375 23.46875 -10.421875 L 23.46875 -1.25 C 23.46875 -0.8125 23.367188 -0.492188 23.171875 -0.296875 C 22.972656 -0.0976562 22.65625 0 22.21875 0 L 16.984375 0 C 16.515625 0 16.171875 -0.0976562 15.953125 -0.296875 C 15.734375 -0.492188 15.625 -0.8125 15.625 -1.25 L 15.625 -6.109375 L 9.484375 -6.109375 Z M 9.484375 -1.25 "/></g></g></g><g fill="#00ffff" fill-opacity="1"><g transform="translate(91.660352, 212.237036)"><g><path d="M 9.03125 0 L 3.640625 0 C 3.203125 0 2.882812 -0.0976562 2.6875 -0.296875 C 2.488281 -0.492188 2.390625 -0.8125 2.390625 -1.25 L 2.390625 -23.75 C 2.390625 -24.1875 2.488281 -24.503906 2.6875 -24.703125 C 2.882812 -24.898438 3.203125 -25 3.640625 -25 L 19.125 -25 C 19.570312 -25 19.890625 -24.898438 20.078125 -24.703125 C 20.273438 -24.503906 20.375 -24.1875 20.375 -23.75 L 20.375 -19.609375 C 20.375 -19.171875 20.273438 -18.851562 20.078125 -18.65625 C 19.890625 -18.457031 19.570312 -18.359375 19.125 -18.359375 L 10.28125 -18.359375 L 10.28125 -14.75 L 16.3125 -14.75 C 16.757812 -14.75 17.078125 -14.648438 17.265625 -14.453125 C 17.460938 -14.265625 17.5625 -13.945312 17.5625 -13.5 L 17.5625 -9.34375 C 17.5625 -8.90625 17.460938 -8.585938 17.265625 -8.390625 C 17.078125 -8.191406 16.757812 -8.09375 16.3125 -8.09375 L 10.28125 -8.09375 L 10.28125 -1.25 C 10.28125 -0.8125 10.179688 -0.492188 9.984375 -0.296875 C 9.785156 -0.0976562 9.46875 0 9.03125 0 Z M 9.03125 0 "/></g></g></g><g fill="#00ffff" fill-opacity="1"><g transform="translate(113.118939, 212.237036)"><g><path d="M 11.453125 -17.703125 L 9.828125 -12.421875 L 15.28125 -12.421875 L 13.640625 -17.703125 C 13.546875 -17.910156 13.445312 -18.0625 13.34375 -18.15625 C 13.238281 -18.25 13.117188 -18.296875 12.984375 -18.296875 L 12.109375 -18.296875 C 11.972656 -18.296875 11.851562 -18.25 11.75 -18.15625 C 11.644531 -18.0625 11.546875 -17.910156 11.453125 -17.703125 Z M 9.484375 -1.25 C 9.484375 -0.8125 9.382812 -0.492188 9.1875 -0.296875 C 8.988281 -0.0976562 8.671875 0 8.234375 0 L 3.125 0 C 2.6875 0 2.367188 -0.0976562 2.171875 -0.296875 C 1.972656 -0.492188 1.875 -0.8125 1.875 -1.25 L 1.875 -10.421875 C 1.875 -11.109375 1.984375 -11.90625 2.203125 -12.8125 C 2.421875 -13.71875 2.765625 -14.769531 3.234375 -15.96875 L 6.25 -23.859375 C 6.382812 -24.242188 6.597656 -24.53125 6.890625 -24.71875 C 7.179688 -24.90625 7.554688 -25 8.015625 -25 L 17.359375 -25 C 17.796875 -25 18.160156 -24.90625 18.453125 -24.71875 C 18.742188 -24.53125 18.957031 -24.242188 19.09375 -23.859375 L 22.109375 -15.96875 C 22.578125 -14.769531 22.921875 -13.71875 23.140625 -12.8125 C 23.359375 -11.90625 23.46875 -11.109375 23.46875 -10.421875 L 23.46875 -1.25 C 23.46875 -0.8125 23.367188 -0.492188 23.171875 -0.296875 C 22.972656 -0.0976562 22.65625 0 22.21875 0 L 16.984375 0 C 16.515625 0 16.171875 -0.0976562 15.953125 -0.296875 C 15.734375 -0.492188 15.625 -0.8125 15.625 -1.25 L 15.625 -6.109375 L 9.484375 -6.109375 Z M 9.484375 -1.25 "/></g></g></g><g fill="#00ffff" fill-opacity="1"><g transform="translate(138.466456, 212.237036)"><g><path d="M 19.75 0 L 3.640625 0 C 3.203125 0 2.882812 -0.0976562 2.6875 -0.296875 C 2.488281 -0.492188 2.390625 -0.8125 2.390625 -1.25 L 2.390625 -23.75 C 2.390625 -24.1875 2.488281 -24.503906 2.6875 -24.703125 C 2.882812 -24.898438 3.203125 -25 3.640625 -25 L 19.75 -25 C 20.195312 -25 20.515625 -24.898438 20.703125 -24.703125 C 20.898438 -24.503906 21 -24.1875 21 -23.75 L 21 -19.6875 C 21 -19.25 20.898438 -18.929688 20.703125 -18.734375 C 20.515625 -18.535156 20.195312 -18.4375 19.75 -18.4375 L 10.171875 -18.4375 L 10.171875 -15.765625 L 16.9375 -15.765625 C 17.382812 -15.765625 17.703125 -15.664062 17.890625 -15.46875 C 18.085938 -15.269531 18.1875 -14.953125 18.1875 -14.515625 L 18.1875 -10.796875 C 18.1875 -10.359375 18.085938 -10.039062 17.890625 -9.84375 C 17.703125 -9.644531 17.382812 -9.546875 16.9375 -9.546875 L 10.171875 -9.546875 L 10.171875 -6.5625 L 19.75 -6.5625 C 20.195312 -6.5625 20.515625 -6.460938 20.703125 -6.265625 C 20.898438 -6.066406 21 -5.75 21 -5.3125 L 21 -1.25 C 21 -0.8125 20.898438 -0.492188 20.703125 -0.296875 C 20.515625 -0.0976562 20.195312 0 19.75 0 Z M 19.75 0 "/></g></g></g><g fill="#00ffff" fill-opacity="1"><g transform="translate(161.175057, 212.237036)"><g><path d="M 21.3125 0 L 3.640625 0 C 3.203125 0 2.882812 -0.0976562 2.6875 -0.296875 C 2.488281 -0.492188 2.390625 -0.8125 2.390625 -1.25 L 2.390625 -23.75 C 2.390625 -24.1875 2.488281 -24.503906 2.6875 -24.703125 C 2.882812 -24.898438 3.203125 -25 3.640625 -25 L 9.03125 -25 C 9.46875 -25 9.785156 -24.898438 9.984375 -24.703125 C 10.179688 -24.503906 10.28125 -24.1875 10.28125 -23.75 L 10.28125 -6.5625 L 15.03125 -6.5625 L 15.03125 -12.1875 C 15.03125 -12.625 15.128906 -12.941406 15.328125 -13.140625 C 15.523438 -13.335938 15.84375 -13.4375 16.28125 -13.4375 L 21.3125 -13.4375 C 21.757812 -13.4375 22.078125 -13.335938 22.265625 -13.140625 C 22.460938 -12.941406 22.5625 -12.625 22.5625 -12.1875 L 22.5625 -1.25 C 22.5625 -0.8125 22.460938 -0.492188 22.265625 -0.296875 C 22.078125 -0.0976562 21.757812 0 21.3125 0 Z M 21.3125 0 "/></g></g></g><g fill="#00ffff" fill-opacity="1"><g transform="translate(185.307281, 212.237036)"><g/></g></g><g fill="#00ffff" fill-opacity="1"><g transform="translate(193.119875, 212.237036)"><g><path d="M 21.484375 0 L 10.546875 0 C 7.660156 0 5.515625 -0.578125 4.109375 -1.734375 C 2.710938 -2.890625 2.015625 -4.671875 2.015625 -7.078125 L 2.015625 -17.921875 C 2.015625 -20.328125 2.710938 -22.109375 4.109375 -23.265625 C 5.515625 -24.421875 7.660156 -25 10.546875 -25 L 19.234375 -25 C 19.671875 -25 19.988281 -24.898438 20.1875 -24.703125 C 20.382812 -24.503906 20.484375 -24.1875 20.484375 -23.75 L 20.484375 -19.546875 C 20.484375 -19.109375 20.382812 -18.789062 20.1875 -18.59375 C 19.988281 -18.394531 19.671875 -18.296875 19.234375 -18.296875 L 12.015625 -18.296875 C 11.296875 -18.296875 10.757812 -18.148438 10.40625 -17.859375 C 10.0625 -17.566406 9.890625 -17.132812 9.890625 -16.5625 L 9.890625 -8.265625 C 9.890625 -7.679688 10.019531 -7.25 10.28125 -6.96875 C 10.550781 -6.695312 10.953125 -6.5625 11.484375 -6.5625 L 14.859375 -6.5625 L 14.859375 -11.984375 C 14.859375 -12.421875 14.957031 -12.738281 15.15625 -12.9375 C 15.351562 -13.132812 15.671875 -13.234375 16.109375 -13.234375 L 21.484375 -13.234375 C 21.929688 -13.234375 22.25 -13.132812 22.4375 -12.9375 C 22.632812 -12.738281 22.734375 -12.421875 22.734375 -11.984375 L 22.734375 -1.25 C 22.734375 -0.8125 22.632812 -0.492188 22.4375 -0.296875 C 22.25 -0.0976562 21.929688 0 21.484375 0 Z M 21.484375 0 "/></g></g></g><g fill="#00ffff" fill-opacity="1"><g transform="translate(217.703488, 212.237036)"><g><path d="M 11.453125 -17.703125 L 9.828125 -12.421875 L 15.28125 -12.421875 L 13.640625 -17.703125 C 13.546875 -17.910156 13.445312 -18.0625 13.34375 -18.15625 C 13.238281 -18.25 13.117188 -18.296875 12.984375 -18.296875 L 12.109375 -18.296875 C 11.972656 -18.296875 11.851562 -18.25 11.75 -18.15625 C 11.644531 -18.0625 11.546875 -17.910156 11.453125 -17.703125 Z M 9.484375 -1.25 C 9.484375 -0.8125 9.382812 -0.492188 9.1875 -0.296875 C 8.988281 -0.0976562 8.671875 0 8.234375 0 L 3.125 0 C 2.6875 0 2.367188 -0.0976562 2.171875 -0.296875 C 1.972656 -0.492188 1.875 -0.8125 1.875 -1.25 L 1.875 -10.421875 C 1.875 -11.109375 1.984375 -11.90625 2.203125 -12.8125 C 2.421875 -13.71875 2.765625 -14.769531 3.234375 -15.96875 L 6.25 -23.859375 C 6.382812 -24.242188 6.597656 -24.53125 6.890625 -24.71875 C 7.179688 -24.90625 7.554688 -25 8.015625 -25 L 17.359375 -25 C 17.796875 -25 18.160156 -24.90625 18.453125 -24.71875 C 18.742188 -24.53125 18.957031 -24.242188 19.09375 -23.859375 L 22.109375 -15.96875 C 22.578125 -14.769531 22.921875 -13.71875 23.140625 -12.8125 C 23.359375 -11.90625 23.46875 -11.109375 23.46875 -10.421875 L 23.46875 -1.25 C 23.46875 -0.8125 23.367188 -0.492188 23.171875 -0.296875 C 22.972656 -0.0976562 22.65625 0 22.21875 0 L 16.984375 0 C 16.515625 0 16.171875 -0.0976562 15.953125 -0.296875 C 15.734375 -0.492188 15.625 -0.8125 15.625 -1.25 L 15.625 -6.109375 L 9.484375 -6.109375 Z M 9.484375 -1.25 "/></g></g></g><g fill="#00ffff" fill-opacity="1"><g transform="translate(243.050994, 212.237036)"><g><path d="M 10.234375 -18.75 L 10.234375 -14.296875 L 12.84375 -14.296875 C 13.445312 -14.296875 13.851562 -14.453125 14.0625 -14.765625 C 14.269531 -15.078125 14.375 -15.46875 14.375 -15.9375 L 14.375 -17.109375 C 14.375 -17.578125 14.269531 -17.96875 14.0625 -18.28125 C 13.851562 -18.59375 13.445312 -18.75 12.84375 -18.75 Z M 8.984375 0 L 3.640625 0 C 3.203125 0 2.882812 -0.0976562 2.6875 -0.296875 C 2.488281 -0.492188 2.390625 -0.8125 2.390625 -1.25 L 2.390625 -23.75 C 2.390625 -24.1875 2.488281 -24.503906 2.6875 -24.703125 C 2.882812 -24.898438 3.203125 -25 3.640625 -25 L 15.203125 -25 C 17.796875 -25 19.582031 -24.457031 20.5625 -23.375 C 21.550781 -22.300781 22.046875 -20.910156 22.046875 -19.203125 L 22.046875 -17.609375 C 22.046875 -16.628906 21.898438 -15.796875 21.609375 -15.109375 C 21.316406 -14.429688 20.816406 -13.941406 20.109375 -13.640625 C 21.359375 -13.503906 22.367188 -12.992188 23.140625 -12.109375 C 23.910156 -11.234375 24.296875 -10.066406 24.296875 -8.609375 L 24.296875 -1.25 C 24.296875 -0.8125 24.195312 -0.492188 24 -0.296875 C 23.8125 -0.0976562 23.492188 0 23.046875 0 L 17.671875 0 C 17.234375 0 16.914062 -0.0976562 16.71875 -0.296875 C 16.519531 -0.492188 16.421875 -0.8125 16.421875 -1.25 L 16.421875 -6.5625 C 16.421875 -7.070312 16.320312 -7.445312 16.125 -7.6875 C 15.925781 -7.9375 15.585938 -8.0625 15.109375 -8.0625 L 10.234375 -8.0625 L 10.234375 -1.25 C 10.234375 -0.8125 10.132812 -0.492188 9.9375 -0.296875 C 9.75 -0.0976562 9.429688 0 8.984375 0 Z M 8.984375 0 "/></g></g></g><g fill="#00ffff" fill-opacity="1"><g transform="translate(268.849912, 212.237036)"><g><path d="M 19.03125 0 L 10.546875 0 C 7.660156 0 5.515625 -0.578125 4.109375 -1.734375 C 2.710938 -2.890625 2.015625 -4.671875 2.015625 -7.078125 L 2.015625 -17.875 C 2.015625 -20.28125 2.710938 -22.066406 4.109375 -23.234375 C 5.515625 -24.410156 7.660156 -25 10.546875 -25 L 19.03125 -25 C 19.46875 -25 19.785156 -24.898438 19.984375 -24.703125 C 20.179688 -24.503906 20.28125 -24.1875 20.28125 -23.75 L 20.28125 -19.546875 C 20.28125 -19.109375 20.179688 -18.789062 19.984375 -18.59375 C 19.785156 -18.394531 19.46875 -18.296875 19.03125 -18.296875 L 12.046875 -18.296875 C 11.328125 -18.296875 10.789062 -18.148438 10.4375 -17.859375 C 10.09375 -17.566406 9.921875 -17.132812 9.921875 -16.5625 L 9.921875 -8.296875 C 9.921875 -7.722656 10.09375 -7.300781 10.4375 -7.03125 C 10.789062 -6.757812 11.328125 -6.625 12.046875 -6.625 L 19.03125 -6.625 C 19.46875 -6.625 19.785156 -6.523438 19.984375 -6.328125 C 20.179688 -6.140625 20.28125 -5.820312 20.28125 -5.375 L 20.28125 -1.25 C 20.28125 -0.8125 20.179688 -0.492188 19.984375 -0.296875 C 19.785156 -0.0976562 19.46875 0 19.03125 0 Z M 19.03125 0 "/></g></g></g><g fill="#00ffff" fill-opacity="1"><g transform="translate(290.655712, 212.237036)"><g><path d="M 19.75 0 L 3.640625 0 C 3.203125 0 2.882812 -0.0976562 2.6875 -0.296875 C 2.488281 -0.492188 2.390625 -0.8125 2.390625 -1.25 L 2.390625 -23.75 C 2.390625 -24.1875 2.488281 -24.503906 2.6875 -24.703125 C 2.882812 -24.898438 3.203125 -25 3.640625 -25 L 19.75 -25 C 20.195312 -25 20.515625 -24.898438 20.703125 -24.703125 C 20.898438 -24.503906 21 -24.1875 21 -23.75 L 21 -19.6875 C 21 -19.25 20.898438 -18.929688 20.703125 -18.734375 C 20.515625 -18.535156 20.195312 -18.4375 19.75 -18.4375 L 10.171875 -18.4375 L 10.171875 -15.765625 L 16.9375 -15.765625 C 17.382812 -15.765625 17.703125 -15.664062 17.890625 -15.46875 C 18.085938 -15.269531 18.1875 -14.953125 18.1875 -14.515625 L 18.1875 -10.796875 C 18.1875 -10.359375 18.085938 -10.039062 17.890625 -9.84375 C 17.703125 -9.644531 17.382812 -9.546875 16.9375 -9.546875 L 10.171875 -9.546875 L 10.171875 -6.5625 L 19.75 -6.5625 C 20.195312 -6.5625 20.515625 -6.460938 20.703125 -6.265625 C 20.898438 -6.066406 21 -5.75 21 -5.3125 L 21 -1.25 C 21 -0.8125 20.898438 -0.492188 20.703125 -0.296875 C 20.515625 -0.0976562 20.195312 0 19.75 0 Z M 19.75 0 "/></g></g></g><g fill="#00ffff" fill-opacity="1"><g transform="translate(313.364313, 212.237036)"><g><path d="M 20.0625 0 L 2.84375 0 C 2.40625 0 2.085938 -0.0976562 1.890625 -0.296875 C 1.691406 -0.492188 1.59375 -0.8125 1.59375 -1.25 L 1.59375 -5.90625 C 1.59375 -6.34375 1.660156 -6.726562 1.796875 -7.0625 C 1.941406 -7.394531 2.164062 -7.726562 2.46875 -8.0625 L 10.90625 -18.296875 L 3.46875 -18.296875 C 3.03125 -18.296875 2.710938 -18.394531 2.515625 -18.59375 C 2.316406 -18.789062 2.21875 -19.109375 2.21875 -19.546875 L 2.21875 -23.75 C 2.21875 -24.1875 2.316406 -24.503906 2.515625 -24.703125 C 2.710938 -24.898438 3.03125 -25 3.46875 -25 L 19.4375 -25 C 19.882812 -25 20.203125 -24.898438 20.390625 -24.703125 C 20.585938 -24.503906 20.6875 -24.1875 20.6875 -23.75 L 20.6875 -18.578125 C 20.6875 -18.109375 20.617188 -17.707031 20.484375 -17.375 C 20.347656 -17.039062 20.128906 -16.710938 19.828125 -16.390625 L 11.765625 -6.625 L 20.0625 -6.625 C 20.507812 -6.625 20.828125 -6.523438 21.015625 -6.328125 C 21.210938 -6.140625 21.3125 -5.820312 21.3125 -5.375 L 21.3125 -1.25 C 21.3125 -0.8125 21.210938 -0.492188 21.015625 -0.296875 C 20.828125 -0.0976562 20.507812 0 20.0625 0 Z M 20.0625 0 "/></g></g></g><g fill="#ffffff" fill-opacity="1"><g transform="translate(39.6091, 213.080801)"><g><path d="M 10.234375 -18.75 L 10.234375 -14.296875 L 12.84375 -14.296875 C 13.445312 -14.296875 13.851562 -14.453125 14.0625 -14.765625 C 14.269531 -15.078125 14.375 -15.46875 14.375 -15.9375 L 14.375 -17.109375 C 14.375 -17.578125 14.269531 -17.96875 14.0625 -18.28125 C 13.851562 -18.59375 13.445312 -18.75 12.84375 -18.75 Z M 8.984375 0 L 3.640625 0 C 3.203125 0 2.882812 -0.0976562 2.6875 -0.296875 C 2.488281 -0.492188 2.390625 -0.8125 2.390625 -1.25 L 2.390625 -23.75 C 2.390625 -24.1875 2.488281 -24.503906 2.6875 -24.703125 C 2.882812 -24.898438 3.203125 -25 3.640625 -25 L 15.203125 -25 C 17.796875 -25 19.582031 -24.457031 20.5625 -23.375 C 21.550781 -22.300781 22.046875 -20.910156 22.046875 -19.203125 L 22.046875 -17.609375 C 22.046875 -16.628906 21.898438 -15.796875 21.609375 -15.109375 C 21.316406 -14.429688 20.816406 -13.941406 20.109375 -13.640625 C 21.359375 -13.503906 22.367188 -12.992188 23.140625 -12.109375 C 23.910156 -11.234375 24.296875 -10.066406 24.296875 -8.609375 L 24.296875 -1.25 C 24.296875 -0.8125 24.195312 -0.492188 24 -0.296875 C 23.8125 -0.0976562 23.492188 0 23.046875 0 L 17.671875 0 C 17.234375 0 16.914062 -0.0976562 16.71875 -0.296875 C 16.519531 -0.492188 16.421875 -0.8125 16.421875 -1.25 L 16.421875 -6.5625 C 16.421875 -7.070312 16.320312 -7.445312 16.125 -7.6875 C 15.925781 -7.9375 15.585938 -8.0625 15.109375 -8.0625 L 10.234375 -8.0625 L 10.234375 -1.25 C 10.234375 -0.8125 10.132812 -0.492188 9.9375 -0.296875 C 9.75 -0.0976562 9.429688 0 8.984375 0 Z M 8.984375 0 "/></g></g></g><g fill="#ffffff" fill-opacity="1"><g transform="translate(65.408007, 213.080801)"><g><path d="M 11.453125 -17.703125 L 9.828125 -12.421875 L 15.28125 -12.421875 L 13.640625 -17.703125 C 13.546875 -17.910156 13.445312 -18.0625 13.34375 -18.15625 C 13.238281 -18.25 13.117188 -18.296875 12.984375 -18.296875 L 12.109375 -18.296875 C 11.972656 -18.296875 11.851562 -18.25 11.75 -18.15625 C 11.644531 -18.0625 11.546875 -17.910156 11.453125 -17.703125 Z M 9.484375 -1.25 C 9.484375 -0.8125 9.382812 -0.492188 9.1875 -0.296875 C 8.988281 -0.0976562 8.671875 0 8.234375 0 L 3.125 0 C 2.6875 0 2.367188 -0.0976562 2.171875 -0.296875 C 1.972656 -0.492188 1.875 -0.8125 1.875 -1.25 L 1.875 -10.421875 C 1.875 -11.109375 1.984375 -11.90625 2.203125 -12.8125 C 2.421875 -13.71875 2.765625 -14.769531 3.234375 -15.96875 L 6.25 -23.859375 C 6.382812 -24.242188 6.597656 -24.53125 6.890625 -24.71875 C 7.179688 -24.90625 7.554688 -25 8.015625 -25 L 17.359375 -25 C 17.796875 -25 18.160156 -24.90625 18.453125 -24.71875 C 18.742188 -24.53125 18.957031 -24.242188 19.09375 -23.859375 L 22.109375 -15.96875 C 22.578125 -14.769531 22.921875 -13.71875 23.140625 -12.8125 C 23.359375 -11.90625 23.46875 -11.109375 23.46875 -10.421875 L 23.46875 -1.25 C 23.46875 -0.8125 23.367188 -0.492188 23.171875 -0.296875 C 22.972656 -0.0976562 22.65625 0 22.21875 0 L 16.984375 0 C 16.515625 0 16.171875 -0.0976562 15.953125 -0.296875 C 15.734375 -0.492188 15.625 -0.8125 15.625 -1.25 L 15.625 -6.109375 L 9.484375 -6.109375 Z M 9.484375 -1.25 "/></g></g></g><g fill="#ffffff" fill-opacity="1"><g transform="translate(90.755524, 213.080801)"><g><path d="M 9.03125 0 L 3.640625 0 C 3.203125 0 2.882812 -0.0976562 2.6875 -0.296875 C 2.488281 -0.492188 2.390625 -0.8125 2.390625 -1.25 L 2.390625 -23.75 C 2.390625 -24.1875 2.488281 -24.503906 2.6875 -24.703125 C 2.882812 -24.898438 3.203125 -25 3.640625 -25 L 19.125 -25 C 19.570312 -25 19.890625 -24.898438 20.078125 -24.703125 C 20.273438 -24.503906 20.375 -24.1875 20.375 -23.75 L 20.375 -19.609375 C 20.375 -19.171875 20.273438 -18.851562 20.078125 -18.65625 C 19.890625 -18.457031 19.570312 -18.359375 19.125 -18.359375 L 10.28125 -18.359375 L 10.28125 -14.75 L 16.3125 -14.75 C 16.757812 -14.75 17.078125 -14.648438 17.265625 -14.453125 C 17.460938 -14.265625 17.5625 -13.945312 17.5625 -13.5 L 17.5625 -9.34375 C 17.5625 -8.90625 17.460938 -8.585938 17.265625 -8.390625 C 17.078125 -8.191406 16.757812 -8.09375 16.3125 -8.09375 L 10.28125 -8.09375 L 10.28125 -1.25 C 10.28125 -0.8125 10.179688 -0.492188 9.984375 -0.296875 C 9.785156 -0.0976562 9.46875 0 9.03125 0 Z M 9.03125 0 "/></g></g></g><g fill="#ffffff" fill-opacity="1"><g transform="translate(112.21411, 213.080801)"><g><path d="M 11.453125 -17.703125 L 9.828125 -12.421875 L 15.28125 -12.421875 L 13.640625 -17.703125 C 13.546875 -17.910156 13.445312 -18.0625 13.34375 -18.15625 C 13.238281 -18.25 13.117188 -18.296875 12.984375 -18.296875 L 12.109375 -18.296875 C 11.972656 -18.296875 11.851562 -18.25 11.75 -18.15625 C 11.644531 -18.0625 11.546875 -17.910156 11.453125 -17.703125 Z M 9.484375 -1.25 C 9.484375 -0.8125 9.382812 -0.492188 9.1875 -0.296875 C 8.988281 -0.0976562 8.671875 0 8.234375 0 L 3.125 0 C 2.6875 0 2.367188 -0.0976562 2.171875 -0.296875 C 1.972656 -0.492188 1.875 -0.8125 1.875 -1.25 L 1.875 -10.421875 C 1.875 -11.109375 1.984375 -11.90625 2.203125 -12.8125 C 2.421875 -13.71875 2.765625 -14.769531 3.234375 -15.96875 L 6.25 -23.859375 C 6.382812 -24.242188 6.597656 -24.53125 6.890625 -24.71875 C 7.179688 -24.90625 7.554688 -25 8.015625 -25 L 17.359375 -25 C 17.796875 -25 18.160156 -24.90625 18.453125 -24.71875 C 18.742188 -24.53125 18.957031 -24.242188 19.09375 -23.859375 L 22.109375 -15.96875 C 22.578125 -14.769531 22.921875 -13.71875 23.140625 -12.8125 C 23.359375 -11.90625 23.46875 -11.109375 23.46875 -10.421875 L 23.46875 -1.25 C 23.46875 -0.8125 23.367188 -0.492188 23.171875 -0.296875 C 22.972656 -0.0976562 22.65625 0 22.21875 0 L 16.984375 0 C 16.515625 0 16.171875 -0.0976562 15.953125 -0.296875 C 15.734375 -0.492188 15.625 -0.8125 15.625 -1.25 L 15.625 -6.109375 L 9.484375 -6.109375 Z M 9.484375 -1.25 "/></g></g></g><g fill="#ffffff" fill-opacity="1"><g transform="translate(137.561627, 213.080801)"><g><path d="M 19.75 0 L 3.640625 0 C 3.203125 0 2.882812 -0.0976562 2.6875 -0.296875 C 2.488281 -0.492188 2.390625 -0.8125 2.390625 -1.25 L 2.390625 -23.75 C 2.390625 -24.1875 2.488281 -24.503906 2.6875 -24.703125 C 2.882812 -24.898438 3.203125 -25 3.640625 -25 L 19.75 -25 C 20.195312 -25 20.515625 -24.898438 20.703125 -24.703125 C 20.898438 -24.503906 21 -24.1875 21 -23.75 L 21 -19.6875 C 21 -19.25 20.898438 -18.929688 20.703125 -18.734375 C 20.515625 -18.535156 20.195312 -18.4375 19.75 -18.4375 L 10.171875 -18.4375 L 10.171875 -15.765625 L 16.9375 -15.765625 C 17.382812 -15.765625 17.703125 -15.664062 17.890625 -15.46875 C 18.085938 -15.269531 18.1875 -14.953125 18.1875 -14.515625 L 18.1875 -10.796875 C 18.1875 -10.359375 18.085938 -10.039062 17.890625 -9.84375 C 17.703125 -9.644531 17.382812 -9.546875 16.9375 -9.546875 L 10.171875 -9.546875 L 10.171875 -6.5625 L 19.75 -6.5625 C 20.195312 -6.5625 20.515625 -6.460938 20.703125 -6.265625 C 20.898438 -6.066406 21 -5.75 21 -5.3125 L 21 -1.25 C 21 -0.8125 20.898438 -0.492188 20.703125 -0.296875 C 20.515625 -0.0976562 20.195312 0 19.75 0 Z M 19.75 0 "/></g></g></g><g fill="#ffffff" fill-opacity="1"><g transform="translate(160.270229, 213.080801)"><g><path d="M 21.3125 0 L 3.640625 0 C 3.203125 0 2.882812 -0.0976562 2.6875 -0.296875 C 2.488281 -0.492188 2.390625 -0.8125 2.390625 -1.25 L 2.390625 -23.75 C 2.390625 -24.1875 2.488281 -24.503906 2.6875 -24.703125 C 2.882812 -24.898438 3.203125 -25 3.640625 -25 L 9.03125 -25 C 9.46875 -25 9.785156 -24.898438 9.984375 -24.703125 C 10.179688 -24.503906 10.28125 -24.1875 10.28125 -23.75 L 10.28125 -6.5625 L 15.03125 -6.5625 L 15.03125 -12.1875 C 15.03125 -12.625 15.128906 -12.941406 15.328125 -13.140625 C 15.523438 -13.335938 15.84375 -13.4375 16.28125 -13.4375 L 21.3125 -13.4375 C 21.757812 -13.4375 22.078125 -13.335938 22.265625 -13.140625 C 22.460938 -12.941406 22.5625 -12.625 22.5625 -12.1875 L 22.5625 -1.25 C 22.5625 -0.8125 22.460938 -0.492188 22.265625 -0.296875 C 22.078125 -0.0976562 21.757812 0 21.3125 0 Z M 21.3125 0 "/></g></g></g><g fill="#ffffff" fill-opacity="1"><g transform="translate(184.402452, 213.080801)"><g/></g></g><g fill="#ffffff" fill-opacity="1"><g transform="translate(192.215047, 213.080801)"><g><path d="M 21.484375 0 L 10.546875 0 C 7.660156 0 5.515625 -0.578125 4.109375 -1.734375 C 2.710938 -2.890625 2.015625 -4.671875 2.015625 -7.078125 L 2.015625 -17.921875 C 2.015625 -20.328125 2.710938 -22.109375 4.109375 -23.265625 C 5.515625 -24.421875 7.660156 -25 10.546875 -25 L 19.234375 -25 C 19.671875 -25 19.988281 -24.898438 20.1875 -24.703125 C 20.382812 -24.503906 20.484375 -24.1875 20.484375 -23.75 L 20.484375 -19.546875 C 20.484375 -19.109375 20.382812 -18.789062 20.1875 -18.59375 C 19.988281 -18.394531 19.671875 -18.296875 19.234375 -18.296875 L 12.015625 -18.296875 C 11.296875 -18.296875 10.757812 -18.148438 10.40625 -17.859375 C 10.0625 -17.566406 9.890625 -17.132812 9.890625 -16.5625 L 9.890625 -8.265625 C 9.890625 -7.679688 10.019531 -7.25 10.28125 -6.96875 C 10.550781 -6.695312 10.953125 -6.5625 11.484375 -6.5625 L 14.859375 -6.5625 L 14.859375 -11.984375 C 14.859375 -12.421875 14.957031 -12.738281 15.15625 -12.9375 C 15.351562 -13.132812 15.671875 -13.234375 16.109375 -13.234375 L 21.484375 -13.234375 C 21.929688 -13.234375 22.25 -13.132812 22.4375 -12.9375 C 22.632812 -12.738281 22.734375 -12.421875 22.734375 -11.984375 L 22.734375 -1.25 C 22.734375 -0.8125 22.632812 -0.492188 22.4375 -0.296875 C 22.25 -0.0976562 21.929688 0 21.484375 0 Z M 21.484375 0 "/></g></g></g><g fill="#ffffff" fill-opacity="1"><g transform="translate(216.798659, 213.080801)"><g><path d="M 11.453125 -17.703125 L 9.828125 -12.421875 L 15.28125 -12.421875 L 13.640625 -17.703125 C 13.546875 -17.910156 13.445312 -18.0625 13.34375 -18.15625 C 13.238281 -18.25 13.117188 -18.296875 12.984375 -18.296875 L 12.109375 -18.296875 C 11.972656 -18.296875 11.851562 -18.25 11.75 -18.15625 C 11.644531 -18.0625 11.546875 -17.910156 11.453125 -17.703125 Z M 9.484375 -1.25 C 9.484375 -0.8125 9.382812 -0.492188 9.1875 -0.296875 C 8.988281 -0.0976562 8.671875 0 8.234375 0 L 3.125 0 C 2.6875 0 2.367188 -0.0976562 2.171875 -0.296875 C 1.972656 -0.492188 1.875 -0.8125 1.875 -1.25 L 1.875 -10.421875 C 1.875 -11.109375 1.984375 -11.90625 2.203125 -12.8125 C 2.421875 -13.71875 2.765625 -14.769531 3.234375 -15.96875 L 6.25 -23.859375 C 6.382812 -24.242188 6.597656 -24.53125 6.890625 -24.71875 C 7.179688 -24.90625 7.554688 -25 8.015625 -25 L 17.359375 -25 C 17.796875 -25 18.160156 -24.90625 18.453125 -24.71875 C 18.742188 -24.53125 18.957031 -24.242188 19.09375 -23.859375 L 22.109375 -15.96875 C 22.578125 -14.769531 22.921875 -13.71875 23.140625 -12.8125 C 23.359375 -11.90625 23.46875 -11.109375 23.46875 -10.421875 L 23.46875 -1.25 C 23.46875 -0.8125 23.367188 -0.492188 23.171875 -0.296875 C 22.972656 -0.0976562 22.65625 0 22.21875 0 L 16.984375 0 C 16.515625 0 16.171875 -0.0976562 15.953125 -0.296875 C 15.734375 -0.492188 15.625 -0.8125 15.625 -1.25 L 15.625 -6.109375 L 9.484375 -6.109375 Z M 9.484375 -1.25 "/></g></g></g><g fill="#ffffff" fill-opacity="1"><g transform="translate(242.146165, 213.080801)"><g><path d="M 10.234375 -18.75 L 10.234375 -14.296875 L 12.84375 -14.296875 C 13.445312 -14.296875 13.851562 -14.453125 14.0625 -14.765625 C 14.269531 -15.078125 14.375 -15.46875 14.375 -15.9375 L 14.375 -17.109375 C 14.375 -17.578125 14.269531 -17.96875 14.0625 -18.28125 C 13.851562 -18.59375 13.445312 -18.75 12.84375 -18.75 Z M 8.984375 0 L 3.640625 0 C 3.203125 0 2.882812 -0.0976562 2.6875 -0.296875 C 2.488281 -0.492188 2.390625 -0.8125 2.390625 -1.25 L 2.390625 -23.75 C 2.390625 -24.1875 2.488281 -24.503906 2.6875 -24.703125 C 2.882812 -24.898438 3.203125 -25 3.640625 -25 L 15.203125 -25 C 17.796875 -25 19.582031 -24.457031 20.5625 -23.375 C 21.550781 -22.300781 22.046875 -20.910156 22.046875 -19.203125 L 22.046875 -17.609375 C 22.046875 -16.628906 21.898438 -15.796875 21.609375 -15.109375 C 21.316406 -14.429688 20.816406 -13.941406 20.109375 -13.640625 C 21.359375 -13.503906 22.367188 -12.992188 23.140625 -12.109375 C 23.910156 -11.234375 24.296875 -10.066406 24.296875 -8.609375 L 24.296875 -1.25 C 24.296875 -0.8125 24.195312 -0.492188 24 -0.296875 C 23.8125 -0.0976562 23.492188 0 23.046875 0 L 17.671875 0 C 17.234375 0 16.914062 -0.0976562 16.71875 -0.296875 C 16.519531 -0.492188 16.421875 -0.8125 16.421875 -1.25 L 16.421875 -6.5625 C 16.421875 -7.070312 16.320312 -7.445312 16.125 -7.6875 C 15.925781 -7.9375 15.585938 -8.0625 15.109375 -8.0625 L 10.234375 -8.0625 L 10.234375 -1.25 C 10.234375 -0.8125 10.132812 -0.492188 9.9375 -0.296875 C 9.75 -0.0976562 9.429688 0 8.984375 0 Z M 8.984375 0 "/></g></g></g><g fill="#ffffff" fill-opacity="1"><g transform="translate(267.945084, 213.080801)"><g><path d="M 19.03125 0 L 10.546875 0 C 7.660156 0 5.515625 -0.578125 4.109375 -1.734375 C 2.710938 -2.890625 2.015625 -4.671875 2.015625 -7.078125 L 2.015625 -17.875 C 2.015625 -20.28125 2.710938 -22.066406 4.109375 -23.234375 C 5.515625 -24.410156 7.660156 -25 10.546875 -25 L 19.03125 -25 C 19.46875 -25 19.785156 -24.898438 19.984375 -24.703125 C 20.179688 -24.503906 20.28125 -24.1875 20.28125 -23.75 L 20.28125 -19.546875 C 20.28125 -19.109375 20.179688 -18.789062 19.984375 -18.59375 C 19.785156 -18.394531 19.46875 -18.296875 19.03125 -18.296875 L 12.046875 -18.296875 C 11.328125 -18.296875 10.789062 -18.148438 10.4375 -17.859375 C 10.09375 -17.566406 9.921875 -17.132812 9.921875 -16.5625 L 9.921875 -8.296875 C 9.921875 -7.722656 10.09375 -7.300781 10.4375 -7.03125 C 10.789062 -6.757812 11.328125 -6.625 12.046875 -6.625 L 19.03125 -6.625 C 19.46875 -6.625 19.785156 -6.523438 19.984375 -6.328125 C 20.179688 -6.140625 20.28125 -5.820312 20.28125 -5.375 L 20.28125 -1.25 C 20.28125 -0.8125 20.179688 -0.492188 19.984375 -0.296875 C 19.785156 -0.0976562 19.46875 0 19.03125 0 Z M 19.03125 0 "/></g></g></g><g fill="#ffffff" fill-opacity="1"><g transform="translate(289.750884, 213.080801)"><g><path d="M 19.75 0 L 3.640625 0 C 3.203125 0 2.882812 -0.0976562 2.6875 -0.296875 C 2.488281 -0.492188 2.390625 -0.8125 2.390625 -1.25 L 2.390625 -23.75 C 2.390625 -24.1875 2.488281 -24.503906 2.6875 -24.703125 C 2.882812 -24.898438 3.203125 -25 3.640625 -25 L 19.75 -25 C 20.195312 -25 20.515625 -24.898438 20.703125 -24.703125 C 20.898438 -24.503906 21 -24.1875 21 -23.75 L 21 -19.6875 C 21 -19.25 20.898438 -18.929688 20.703125 -18.734375 C 20.515625 -18.535156 20.195312 -18.4375 19.75 -18.4375 L 10.171875 -18.4375 L 10.171875 -15.765625 L 16.9375 -15.765625 C 17.382812 -15.765625 17.703125 -15.664062 17.890625 -15.46875 C 18.085938 -15.269531 18.1875 -14.953125 18.1875 -14.515625 L 18.1875 -10.796875 C 18.1875 -10.359375 18.085938 -10.039062 17.890625 -9.84375 C 17.703125 -9.644531 17.382812 -9.546875 16.9375 -9.546875 L 10.171875 -9.546875 L 10.171875 -6.5625 L 19.75 -6.5625 C 20.195312 -6.5625 20.515625 -6.460938 20.703125 -6.265625 C 20.898438 -6.066406 21 -5.75 21 -5.3125 L 21 -1.25 C 21 -0.8125 20.898438 -0.492188 20.703125 -0.296875 C 20.515625 -0.0976562 20.195312 0 19.75 0 Z M 19.75 0 "/></g></g></g><g fill="#ffffff" fill-opacity="1"><g transform="translate(312.459485, 213.080801)"><g><path d="M 20.0625 0 L 2.84375 0 C 2.40625 0 2.085938 -0.0976562 1.890625 -0.296875 C 1.691406 -0.492188 1.59375 -0.8125 1.59375 -1.25 L 1.59375 -5.90625 C 1.59375 -6.34375 1.660156 -6.726562 1.796875 -7.0625 C 1.941406 -7.394531 2.164062 -7.726562 2.46875 -8.0625 L 10.90625 -18.296875 L 3.46875 -18.296875 C 3.03125 -18.296875 2.710938 -18.394531 2.515625 -18.59375 C 2.316406 -18.789062 2.21875 -19.109375 2.21875 -19.546875 L 2.21875 -23.75 C 2.21875 -24.1875 2.316406 -24.503906 2.515625 -24.703125 C 2.710938 -24.898438 3.03125 -25 3.46875 -25 L 19.4375 -25 C 19.882812 -25 20.203125 -24.898438 20.390625 -24.703125 C 20.585938 -24.503906 20.6875 -24.1875 20.6875 -23.75 L 20.6875 -18.578125 C 20.6875 -18.109375 20.617188 -17.707031 20.484375 -17.375 C 20.347656 -17.039062 20.128906 -16.710938 19.828125 -16.390625 L 11.765625 -6.625 L 20.0625 -6.625 C 20.507812 -6.625 20.828125 -6.523438 21.015625 -6.328125 C 21.210938 -6.140625 21.3125 -5.820312 21.3125 -5.375 L 21.3125 -1.25 C 21.3125 -0.8125 21.210938 -0.492188 21.015625 -0.296875 C 20.828125 -0.0976562 20.507812 0 20.0625 0 Z M 20.0625 0 "/></g></g></g></svg>